<svg xmlns="http://www.w3.org/2000/svg" width="283" height="37" fill="none" viewBox="0 0 283 37"><path fill="#941732" d="M103.939 35.983h17.471c.923 0 1.673-.75 1.673-1.673V1.92c0-.923-.75-1.673-1.673-1.673h-17.471c-.923 0-1.674.75-1.674 1.673v16.486C97.983 16.713 88.385 3.42 84.989 1.28 83.177.14 81.988.247 81.988.247H64.513c-.923 0-1.673.75-1.673 1.673v32.387c0 .923.75 1.673 1.673 1.673h17.475c.923 0 1.673-.75 1.673-1.673V17.45s1.4.882 2.804 2.36c2.743 2.892 13.54 16.687 17.474 16.172M280.373 35.985c.923 0 1.674-.75 1.674-1.674V1.921c0-.923-.751-1.673-1.674-1.673h-18.651a1.67 1.67 0 0 0-1.673 1.673v32.387c0 .923.747 1.673 1.673 1.673h18.651zM154.908 34.311c0 .923-.75 1.673-1.673 1.673H134.58c-.923 0-1.673-.75-1.673-1.673V1.924c0-.923.75-1.673 1.673-1.673l53.267-.028c3.834 0 9.24 3.641 9.24 9.104 0 7.064-5.774 8.492-9.55 10.555l14.331 14.4s1.922 1.724-1.397 1.724h-23.536c-2.16 0-3.721-.913-5.73-2.291-6.04-4.129-14.451-12.383-14.451-12.383-.907-.907-.64-1.682-.64-1.682 0-3.23 14.391 1.271 14.391-7.554 0 0-.091-4.307-7.591-4.307-1.821 0-8.022.31-8.022 3.912l.019 22.607zM20.093 27.467c-.892 0-1.651 1.04-1.651 1.04l-4.713 5.842c-.58.898-1.098 1.658-2.087 1.658H1.865s-2.003.2-.072-1.658L29.841 1.064c.779-.772 1.764-.832 1.764-.832l19.742.02c.922 0 1.67.746 1.67 1.673v32.383c0 .93-.748 1.673-1.539 1.699H34.004c-1.253-.029-1.808-.763-1.808-1.699v-6.812zm6.122-7.503h5.98V13.17zM252.796 13.744c1.162-.019.87 1.228.87 1.228-.352 3.167-5.742 7.17-8.153 7.17h-17.474l-.069 5.45h26.082c1.159 0 .867 1.25.867 1.25-.352 3.168-5.742 7.164-8.154 7.164l-39.089-.022c-.92 0-1.673-.747-1.673-1.67V1.924c0-.93.753-1.673 1.673-1.673l46.357-.038c1.162-.019.87 1.228.87 1.228-.358 3.167-5.748 7.17-8.153 7.17h-18.733l-.013 5.143 24.796-.01z"/></svg>