<svg xmlns="http://www.w3.org/2000/svg" width="233" height="47" fill="none" viewBox="0 0 233 47"><g fill="#f2c093"><path d="M.026 45.627V1.373h13.06c13.378 0 23.588 8.304 23.588 21.81 0 14.456-8.686 22.444-23.523 22.444zM13.15 40.05c9.636 0 16.802-4.246 16.802-16.674 0-10.08-6.785-16.42-16.233-16.42H6.366V40.05zM44.914 45.627V1.373h6.34v44.254zM61.593 45.627V1.373h24.79V6.95h-18.45v12.937h16.802v5.578H67.933V40.05h18.45v5.577zM106.61 45.627V6.95H92.851V1.373h33.857V6.95h-13.759v38.677zM130.262 38.654c3.043 1.267 6.592 2.158 9.195 2.158 4.187 0 8.686-2.41 8.686-7.23 0-3.232-1.584-5.39-8.562-8.563-5.707-2.598-10.463-5.454-10.463-12.363 0-7.354 5.578-12.046 14.204-12.046 2.979 0 6.404.51 9.448 1.584l-.886 5.835c-3.425-1.396-5.325-1.841-8.245-1.841-4.944 0-7.8 2.158-7.8 5.894 0 4.123 4.563 5.77 8.304 7.671 4.821 2.41 10.715 5.325 10.715 13.442 0 8.556-6.152 13.19-16.104 13.19-3.232 0-5.959-.822-9.131-1.842l.633-5.894zM192.08 44.806c-2.475 1.014-5.771 1.584-10.081 1.584-14.14 0-23.335-9.132-23.335-23.078S168.428.61 182.063.61c3.489 0 6.785.51 9.953 1.9l-.51 6.152c-2.792-1.648-5.895-2.474-9.132-2.474-10.081 0-16.99 7.29-16.99 17.312s7.226 17.312 16.674 17.312c3.425 0 7.483-.886 9.641-2.158zM226.259 45.627V25.465h-21.177v20.162h-6.34V1.373h6.34v18.514h21.177V1.373h6.34v44.254z"/></g></svg>