<svg xmlns="http://www.w3.org/2000/svg" width="100" height="43" fill="none" viewBox="0 0 100 43"><path fill="#fff" d="M8.951 6.81h1.724v6.504h8.82V6.811h1.724v14.63H19.5v-6.578h-8.82v6.579H8.952zm16.902 7.364v-.048c0-4.036 3.16-7.567 7.816-7.567 4.658 0 7.772 3.493 7.772 7.532v.035c0 4.037-3.16 7.568-7.816 7.568-4.657 0-7.767-3.484-7.767-7.522zm13.798 0v-.048c0-3.324-2.533-6.054-6.026-6.054-3.494 0-5.982 2.69-5.982 6.017v.037c0 3.328 2.533 6.054 6.026 6.054 3.494 0 5.987-2.681 5.987-6.008zm6.842-7.363h5.721c3.449 0 5.718 1.766 5.718 4.644v.04c0 3.161-2.75 4.793-6.002 4.793h-3.712v5.154h-1.725V6.81Zm5.503 7.969c2.532 0 4.19-1.297 4.19-3.222v-.04c0-2.094-1.637-3.18-4.103-3.18h-3.865v6.44zm10.433-7.97h1.724v8.742l8.772-8.741h2.249l-6.582 6.4 6.845 8.243h-2.161l-5.88-7.093-3.243 3.158v3.923H62.43zm17.46 0h11.057v1.514h-9.333v4.99h8.34v1.514h-8.34v5.118h9.433v1.513H79.89V6.811ZM38.882 0l-4.475 4.288h2.282l2.983-2.858h58.835v25.743H1.493V1.43h29.92L32.91 0H0v28.603h100V0zM23.026 36.918h-2.37v-1.166h6.055v1.166h-2.37v5.986h-1.316v-5.986Zm6.055-1.166h5.528v1.125h-4.212v1.86h3.749v1.132h-3.744v1.91h4.276v1.125H29.09l-.01-7.152Zm14.522 0L41 39.246l2.71 3.658h-1.548l-1.972-2.727-1.962 2.727h-1.503l2.699-3.638-2.567-3.514h1.545l1.843 2.586 1.877-2.586h1.48Zm4.138 1.166h-2.37v-1.166h6.056v1.166h-2.37v5.986h-1.316zm6.195-1.166h1.316v7.152h-1.316zm4.37 0h1.317v6.007h3.922v1.145h-5.228zm7.548 0h5.529v1.125H67.17v1.86h3.741v1.132h-3.733v1.91h4.276v1.125h-5.59zm7.722 6.123.79-.901a3.53 3.53 0 0 0 2.369.93c.81 0 1.316-.367 1.316-.897v-.023c0-.504-.297-.784-1.682-1.092-1.58-.368-2.485-.817-2.485-2.134v-.02c0-1.226 1.053-2.074 2.548-2.074a4.24 4.24 0 0 1 2.707.898l-.703.951a3.47 3.47 0 0 0-2.025-.736c-.769 0-1.216.378-1.216.847v.02c0 .553.342.797 1.78 1.125 1.58.369 2.39.908 2.39 2.094v.003c0 1.34-1.1 2.134-2.667 2.134a4.7 4.7 0 0 1-3.122-1.125"/></svg>