<svg xmlns="http://www.w3.org/2000/svg" xmlns:xlink="http://www.w3.org/1999/xlink" xml:space="preserve" width="123.625" height="63.875" viewBox="0 0 123.625 63.875"><defs><path id="a" d="M.625.925h122.418v62.356H.625z"/></defs><clipPath id="b"><use xlink:href="#a" overflow="visible"/></clipPath><path fill="#6c7128" d="M123.043 63.281h-2.105l-2.727-6.404v6.404h-1.449V55.02h2.105l2.727 6.404V55.02h1.449zm-10.247 0h-1.351l-.186-1.052-.793.792a.86.86 0 0 1-.619.26h-2.515a.86.86 0 0 1-.62-.26l-1.016-1.017a.85.85 0 0 1-.26-.618v-4.473c0-.234.086-.446.26-.62l1.016-1.015a.85.85 0 0 1 .62-.26h3.221a.85.85 0 0 1 .619.26l1.078 1.077-1.003.991-.844-.843a.22.22 0 0 0-.172-.073h-2.578a.22.22 0 0 0-.172.073l-.484.483a.25.25 0 0 0-.074.173v3.978c0 .062.025.125.074.174l.484.481a.22.22 0 0 0 .172.076h1.957a.22.22 0 0 0 .175-.076l1.127-1.127a.22.22 0 0 0 .075-.173v-.644h-2.045v-1.412h3.531v3.195zm-10.631 0h-4.46V61.97h1.486v-5.638h-1.486V55.02h4.46v1.312h-1.486v5.638h1.486zm-7.558-1.894a.85.85 0 0 1-.261.618l-1.016 1.017a.86.86 0 0 1-.62.26h-3.456a.85.85 0 0 1-.619-.26l-1.054-1.052.992-1.005.83.829a.22.22 0 0 0 .172.076h2.812a.22.22 0 0 0 .174-.076l.483-.481a.24.24 0 0 0 .074-.174v-.793c0-.124-.111-.235-.235-.247l-4.447-.596a.996.996 0 0 1-.855-.966v-1.623c0-.234.087-.446.261-.62l1.015-1.015a.85.85 0 0 1 .621-.26h3.455c.236 0 .446.086.62.26l1.054 1.053-.992 1.003-.829-.83a.22.22 0 0 0-.175-.073H89.8a.22.22 0 0 0-.173.073l-.482.483a.24.24 0 0 0-.076.173v.793c0 .124.1.236.224.248l4.46.595a.996.996 0 0 1 .855.967v1.623zm-10.642 1.894h-5.538V55.02h5.538v1.412h-4.051v2.007h4.051v1.412h-4.051v2.02h4.051zM72.8 61.139v-3.978a.25.25 0 0 0-.073-.173l-.484-.483a.22.22 0 0 0-.172-.073h-2.578v5.438h2.578a.22.22 0 0 0 .172-.076l.484-.481a.25.25 0 0 0 .073-.174m1.487.248a.86.86 0 0 1-.26.618l-1.017 1.017a.85.85 0 0 1-.618.26h-4.387V55.02h4.387a.85.85 0 0 1 .618.26l1.017 1.015c.172.174.26.386.26.62zm-17.619-3.296v-1.14a.22.22 0 0 0-.075-.173l-.272-.273a.22.22 0 0 0-.174-.073H53.36v2.18h2.787a.23.23 0 0 0 .174-.074l.272-.272a.23.23 0 0 0 .075-.175m2.069 5.19h-1.822l-2.44-3.147a.25.25 0 0 0-.211-.109h-.904v3.257h-1.487V55.02h4.609c.235 0 .433.086.595.247l.817.817a.83.83 0 0 1 .26.62v1.635a.83.83 0 0 1-.26.619l-.817.817a.81.81 0 0 1-.595.249h-.298zm-11.001 0h-5.538V55.02h5.538v1.412h-4.052v2.007h4.052v1.412h-4.052v2.02h4.052zm-8.898 0H33.3V55.02h1.488v6.851h4.05zm-8.897 0h-5.537V55.02h1.486v6.851h4.051zm-11.163-2.142v-3.978a.25.25 0 0 0-.075-.173l-.483-.483a.22.22 0 0 0-.173-.073h-2.589a.22.22 0 0 0-.174.073l-.483.483a.24.24 0 0 0-.074.173v3.978c0 .062.024.125.074.174l.483.481a.22.22 0 0 0 .174.076h2.589a.22.22 0 0 0 .173-.076l.483-.481a.25.25 0 0 0 .075-.174m1.486.248a.85.85 0 0 1-.26.618l-1.016 1.017a.85.85 0 0 1-.619.26h-3.234a.86.86 0 0 1-.619-.26L13.5 62.005a.85.85 0 0 1-.26-.618v-4.473c0-.234.087-.446.26-.62l1.016-1.015a.85.85 0 0 1 .619-.26h3.234a.85.85 0 0 1 .619.26l1.016 1.015c.174.174.26.386.26.62zm-3.989-7.434h-1.474v-1.474h1.474zm2.428 0h-1.475v-1.474h1.475zm-9.604 9.328H7.65v-6.566l-2.02 6.566H4.094l-2.019-6.566v6.566H.625V55.02h2.28l1.957 6.404L6.82 55.02h2.279z" clip-path="url(#b)"/><path d="m6.82 55.02-1.958 6.403-1.957-6.403H.625v8.261h1.45v-6.566l2.019 6.566H5.63l2.02-6.566v6.566h1.449V55.02z"/><defs><path id="c" d="M.625.925h122.418v62.356H.625z"/></defs><clipPath id="d"><use xlink:href="#c" overflow="visible"/></clipPath><path d="M18.778 61.139a.24.24 0 0 1-.075.174l-.483.481a.22.22 0 0 1-.173.076h-2.589a.22.22 0 0 1-.174-.076l-.483-.481a.24.24 0 0 1-.074-.174v-3.978c0-.061.024-.123.074-.173l.483-.483a.22.22 0 0 1 .174-.073h2.589c.074 0 .124.023.173.073l.483.483c.05.05.075.112.075.173zm1.486.248v-4.473a.86.86 0 0 0-.26-.62l-1.016-1.015a.85.85 0 0 0-.619-.26h-3.234a.85.85 0 0 0-.619.26L13.5 56.294a.86.86 0 0 0-.26.62v4.473c0 .234.087.445.26.618l1.016 1.017c.174.173.384.26.619.26h3.234a.85.85 0 0 0 .619-.26l1.016-1.017a.85.85 0 0 0 .26-.618m-3.989-8.908h-1.474v1.474h1.474zm2.428 0h-1.475v1.474h1.475z" clip-path="url(#d)"/><path d="M24.404 55.02v8.261h5.538V61.87H25.89v-6.85zM33.3 55.02v8.261h5.538V61.87h-4.05v-6.85zM42.198 55.02v8.261h5.538V61.87h-4.051v-2.019h4.051v-1.413h-4.051v-2.006h4.051V55.02z"/><defs><path id="e" d="M.625.925h122.418v62.356H.625z"/></defs><clipPath id="f"><use xlink:href="#e" overflow="visible"/></clipPath><path d="M56.667 58.091a.23.23 0 0 1-.074.174l-.273.272a.23.23 0 0 1-.173.074h-2.788v-2.18h2.788c.074 0 .124.023.173.073l.273.273a.23.23 0 0 1 .074.173zm2.07 5.19-2.552-3.257h.297a.8.8 0 0 0 .595-.249l.817-.817a.83.83 0 0 0 .261-.619v-1.635a.83.83 0 0 0-.261-.62l-.817-.817a.81.81 0 0 0-.595-.247h-4.609v8.262h1.487v-3.257h.905c.086 0 .161.036.21.109l2.441 3.147z" clip-path="url(#f)"/><path d="M72.8 61.138a.25.25 0 0 1-.073.175l-.484.481a.22.22 0 0 1-.172.076h-2.578v-5.439h2.578a.22.22 0 0 1 .172.074l.484.483c.049.05.073.112.073.173zm1.487.248v-4.472a.86.86 0 0 0-.26-.62l-1.017-1.015a.85.85 0 0 0-.618-.26h-4.387v8.262h4.387a.85.85 0 0 0 .618-.26l1.017-1.017a.85.85 0 0 0 .26-.618" clip-path="url(#f)"/><path d="M78.428 55.02v8.261h5.537V61.87h-4.051v-2.019h4.051v-1.413h-4.051v-2.006h4.051V55.02z"/><defs><path id="g" d="M.625.925h122.418v62.356H.625z"/></defs><clipPath id="h"><use xlink:href="#g" overflow="visible"/></clipPath><path d="M94.607 61.386v-1.622a.995.995 0 0 0-.855-.967l-4.461-.595a.25.25 0 0 1-.221-.248v-.793c0-.061.023-.123.073-.173l.483-.483a.22.22 0 0 1 .173-.074h2.813c.073 0 .123.024.172.074l.83.83.992-1.003-1.054-1.053a.85.85 0 0 0-.62-.26h-3.456a.85.85 0 0 0-.618.26l-1.017 1.015a.85.85 0 0 0-.261.62v1.623c0 .47.371.904.855.966l4.447.596c.124.012.234.122.234.246v.793a.25.25 0 0 1-.073.175l-.483.481a.22.22 0 0 1-.173.076h-2.813a.22.22 0 0 1-.172-.076l-.83-.829-.992 1.004 1.054 1.053c.174.173.384.26.619.26h3.456a.85.85 0 0 0 .619-.26l1.017-1.017a.85.85 0 0 0 .262-.619" clip-path="url(#h)"/><path d="M97.705 55.02v1.312h1.487v5.638h-1.487v1.311h4.461V61.97h-1.486v-5.638h1.486V55.02z"/><defs><path id="i" d="M.625.925h122.418v62.356H.625z"/></defs><clipPath id="j"><use xlink:href="#i" overflow="visible"/></clipPath><path d="m112.796 63.281-.321-1.647v-3.195h-3.531v1.412h2.045v.644a.22.22 0 0 1-.075.173l-1.127 1.127a.22.22 0 0 1-.175.076h-1.957a.22.22 0 0 1-.172-.076l-.483-.481a.24.24 0 0 1-.075-.174v-3.978c0-.061.025-.123.075-.173l.483-.483a.22.22 0 0 1 .172-.073h2.578a.22.22 0 0 1 .172.073l.844.843 1.003-.991-1.078-1.077a.85.85 0 0 0-.619-.26h-3.221a.85.85 0 0 0-.62.26l-1.016 1.015a.86.86 0 0 0-.26.62v4.473c0 .234.086.445.26.618l1.016 1.017c.174.173.384.26.62.26h2.515a.86.86 0 0 0 .619-.26l.793-.792.186 1.052h1.349z" clip-path="url(#j)"/><path d="M121.594 55.02v6.403l-2.726-6.403h-2.106v8.261h1.449v-6.404l2.727 6.404h2.105V55.02z"/><path fill="#868786" d="M37.294 44.088V1.012H47.54l14.023 28.655L75.627.925h10.619v43.163H75.157V27.681L66.514 44H56.393l-8.408-16.321v16.409z"/></svg>