<svg xmlns="http://www.w3.org/2000/svg" id="Ebene_1" viewBox="0 0 212.3 99.8"><defs><style>.cls-1{fill:#afafae}.cls-2{fill:#585857}</style></defs><path d="M66.08 43.39c.46.35 1.01.44 1.55.54 2.77.51 5.43 0 8.03-.94 4.08-1.46 7.64-3.8 11-6.49 5.28-4.22 9.4-9.4 12.67-15.28.46-.82.95-1.62 1.6-2.31 1.85-1.98 4.42-1.97 6.26.02.21.23.4.48.6.72.65 1.39.37 2.69-.37 3.95-.43.74-.95 1.4-1.48 2.07-2.48 3.09-4.69 6.36-6.13 10.08-1.16 2.99-1.86 6.06-1.65 9.29.09 1.35.37 2.67 1 3.88.44.85.99 1.64 1.87 2.11 1.26 1.02 2.74 1.12 4.25.94 1.93-.22 3.49-1.24 4.9-2.51 1.76-1.58 3.23-3.45 4.82-5.19 2.05-2.25 4.25-4.31 7.06-5.62 2.58-1.19 5.31-1.47 8.11-1.38 3.77.12 7.35 1.11 10.9 2.29 2.76.92 5.51 1.91 8.39 2.43 3.83.69 7.69 1.24 11.56 1.63 3.44.35 6.88.53 10.34.48 1.63-.03 3.25-.12 4.85-.38.11-.02.23 0 .3-.13-.41-.58-.83-1.16-1.23-1.75-.4-.6-.72-1.24-.89-1.95-.33-1.33.2-2.23 1.56-2.47 2.28-.4 4.44.06 6.51 1.01 1.78.82 3.22 2.06 4.51 3.52-.02.17.11.26.19.38.45.68.81 1.4.98 2.21.26 1.26-.28 2.28-1.47 2.76-.61.25-1.25.34-1.9.31-2.1-.07-4.2-.14-6.3-.23-1.66-.07-3.32-.14-4.97-.24-3.37-.2-6.73-.42-10.1-.63-1.73-.11-3.46-.23-5.19-.31-3.48-.16-6.96-.35-10.44-.44-2.67-.07-5.35-.07-8.03.05-2.67.12-5.34.31-7.96.81-2.27.44-4.47 1.1-6.44 2.39-2.4 1.58-4.53 3.48-6.61 5.45-2.31 2.18-4.52 4.46-6.95 6.5-2.27 1.91-4.76 3.43-7.59 4.33-1.36.43-2.74.67-4.19.52-.86-.09-1.63-.41-2.43-.69-2.14-1.34-2.89-3.54-3.54-5.8-.7-2.42-1.22-4.9-2.12-7.26-.52-1.36-1.05-2.72-2.11-3.78-.99-1.53-3.34-2.46-5.21-2.06-1.44.31-2.69 1.01-3.89 1.81-3.16 2.09-6.02 4.59-9.02 6.89-2.76 2.12-5.56 4.16-8.69 5.69-2.34 1.14-4.78 1.94-7.44 1.86-.95-.03-1.85-.29-2.77-.46-2.5-1.37-2.61-3.71-2.37-6.11.37-3.7 1.65-7.16 2.99-10.59 2.24-5.75 4.99-11.28 7.49-16.92 1.14-2.56 2.31-5.11 3.01-7.83.17-.65.39-1.31.19-2 .02-.71-.45-1.06-1.01-1.31-.81-.36-1.66-.3-2.51-.18-2.28.32-4.42 1.12-6.56 1.94-4.11 1.58-8.11 3.43-12.24 4.99-2.75 1.04-5.49 2.09-8.53 1.56-.08-.04-.16-.09-.24-.12-1.51-.64-1.89-1.82-1-3.21.77-1.21 1.92-1.98 3.16-2.62 2.08-1.07 4.33-1.67 6.55-2.36 5.76-1.77 11.55-3.46 17.31-5.23C65.41 10.06 71.3 7.11 76.59 3 78.54 1.49 80.74.46 83.21.11c.94-.13 1.88-.13 2.81.08 1.17.27 2.11.86 2.68 1.96.09.52.25 1.03.17 1.58-.29 1.95-1.47 3.35-2.84 4.62-1.49 1.38-3.11 2.61-4.58 4.01-3.88 3.68-7.39 7.68-10.49 12.04-2.22 3.12-4.24 6.36-5.67 9.92-.78 1.94-1.42 3.92-1.21 6.06.13 1.34.69 2.44 1.98 3.03ZM48.96 85.17c3.34 0 6.69 0 10.03-.01.44 0 .58.11.55.55-.04.5-.03 1 0 1.5.02.37-.1.48-.46.47-1.37-.02-2.73 0-4.1 0-5.21-.01-10.42-.03-15.63-.05-.63 0-1.25.07-1.48.72-.26.71-.35 1.49.1 2.18.28.44.76.53 1.27.53h17.02c2.12 0 3.71 1.45 3.94 3.57.22 2.05-.62 3.68-2.28 4.45-.55.26-1.13.35-1.72.35-6.6 0-13.19 0-19.79.01-.41 0-.56-.1-.53-.52q.06-.72 0-1.44c-.03-.43.09-.56.54-.56 2.01.03 4.03.01 6.04.01H56.1c1.19 0 1.6-.41 1.6-1.6 0-.29.02-.6-.05-.88-.14-.5-.47-.83-1.02-.88-.2-.02-.41-.02-.61-.02h-16.8c-1.92 0-3.49-1.15-3.87-2.94-.43-2.05-.01-3.85 1.81-4.93.58-.35 1.22-.51 1.9-.51h9.92ZM200.61 85.17h10.64c.4 0 .57.07.53.51-.04.5-.04 1 0 1.49.04.44-.14.56-.54.51-.11-.01-.22 0-.33 0h-20.46c-1.23 0-1.62.39-1.62 1.62v6.15c0 .99.47 1.48 1.44 1.48h18.07c.95 0 1.44-.48 1.44-1.42 0-.48-.03-.96 0-1.44.03-.42-.1-.52-.52-.52-3.2.02-6.39.01-9.59 0-.88 0-.74.06-.75-.73 0-.42.03-.85 0-1.27-.04-.44.13-.51.53-.51 3.86.01 7.72 0 11.59 0q1.24 0 1.24 1.22v3.21c0 2.23-1.62 3.92-3.86 3.93q-9.12.045-18.24 0c-2.23 0-3.85-1.71-3.86-3.93v-6.43c0-2.21 1.69-3.88 3.9-3.88h10.37Z" class="cls-2"/><path d="M97.58 65.11c.79.28 1.56.61 2.43.69 1.45.15 2.83-.09 4.19-.52 2.84-.9 5.32-2.43 7.59-4.33 2.43-2.05 4.64-4.33 6.95-6.5 2.08-1.96 4.21-3.87 6.61-5.45 1.97-1.29 4.16-1.95 6.44-2.39 2.63-.51 5.29-.7 7.96-.81 2.68-.12 5.35-.11 8.03-.05 3.48.09 6.96.27 10.44.44 1.73.08 3.46.2 5.19.31 3.37.21 6.73.43 10.1.63 1.66.1 3.31.17 4.97.24 2.1.09 4.2.16 6.3.23.65.02 1.29-.07 1.9-.31 1.19-.49 1.73-1.51 1.47-2.76-.17-.81-.53-1.53-.98-2.21-.08-.12-.21-.21-.19-.38 1.02.68 1.71 1.66 2.28 2.72.42.79.71 1.62.52 2.54-.17.8-.66 1.3-1.39 1.6q-.87.36-1.83.36c-3.17 0-6.34-.26-9.51-.37-1.88-.06-3.75-.21-5.63-.32-3.11-.18-6.22-.36-9.33-.56-2.02-.13-4.05-.24-6.07-.33-2.05-.1-4.09-.14-6.14-.23-2.38-.11-4.77-.11-7.14-.05-3.74.11-7.47.35-11.12 1.27-2.7.68-4.99 2.07-7.12 3.79-2.53 2.04-4.83 4.34-7.17 6.59-2.04 1.95-4.06 3.93-6.45 5.47-2.11 1.36-4.34 2.44-6.85 2.86-2.28.38-4.37.03-6.09-1.67-.14-.14-.32-.26-.34-.48Z" class="cls-1"/><path d="M27.95 84.83c-.61 1.75-1.2 3.46-1.8 5.16-.91 2.59-1.83 5.18-2.74 7.77-.46 1.31-1.46 2.04-2.78 2.04-1.31 0-2.31-.75-2.77-2.06l-3.36-9.72c-.03-.09-.06-.18-.1-.26-.09-.21-.11-.49-.44-.5-.35 0-.39.28-.47.52-1.14 3.27-2.32 6.53-3.39 9.82-.77 2.37-3.41 2.77-4.83 1.45-.39-.36-.65-.8-.82-1.3C3 93.63 1.56 89.51.12 85.39c-.06-.17-.17-.33-.1-.56.78 0 1.58.02 2.37 0 .36-.01.36.24.44.46 1.16 3.32 2.32 6.65 3.48 9.97.17.49.33.98.51 1.46.07.21.13.45.41.45.31 0 .37-.24.45-.48C8.84 93.35 10 90 11.17 86.66c.73-2.1 3.18-2.75 4.78-1.28.39.36.63.81.8 1.3 1.11 3.22 2.22 6.44 3.35 9.66.11.3.09.8.55.8.45 0 .44-.48.55-.79 1.29-3.69 2.57-7.38 3.83-11.07.13-.37.29-.48.66-.46.73.03 1.47 0 2.25 0ZM78.83 85.17h10.09c.4 0 .57.07.53.51-.04.5-.04 1 0 1.49.03.44-.14.52-.54.51-4.8-.01-9.61 0-14.41 0h-5.43c-1 0-1.44.45-1.44 1.47v6.26c0 1.06.45 1.52 1.51 1.52 6.56 0 13.12 0 19.68-.01.51 0 .68.12.63.63-.05.48-.03.96 0 1.44.02.34-.09.46-.44.45-.72-.02-1.44 0-2.16 0H69.33c-2.61 0-4.22-1.61-4.22-4.21v-6.04c0-2.34 1.67-4 4.02-4.01h9.7ZM106.02 93.53h-9.09c-.44 0-.56.12-.55.56.03 1.61 0 3.21.02 4.82 0 .43-.12.54-.53.52q-.75-.045-1.5 0c-.36.02-.47-.1-.47-.46.02-1.79 0-3.58 0-5.38v-7.92c0-.39.09-.52.49-.49.52.03 1.04.03 1.55 0 .38-.02.46.12.45.47-.02 1.64 0 3.29-.02 4.93 0 .39.1.49.49.49 6.13-.01 12.27-.01 18.4 0 .38 0 .46-.12.46-.47-.02-1.64 0-3.29-.02-4.93 0-.39.1-.52.49-.49.5.03 1 .04 1.5 0 .41-.03.52.09.52.51-.02 2.96-.01 5.91-.01 8.87v4.43c0 .33-.07.46-.43.44-.53-.03-1.07-.03-1.61 0-.36.02-.48-.1-.47-.47.02-1.63-.01-3.25.02-4.88 0-.46-.15-.55-.57-.55-3.05.02-6.1 0-9.15 0Z" class="cls-2"/><path d="M66.08 43.39c-1.29-.6-1.85-1.69-1.98-3.03-.21-2.14.43-4.12 1.21-6.06 1.43-3.57 3.45-6.8 5.67-9.92a83 83 0 0 1 10.49-12.04c1.47-1.4 3.09-2.63 4.58-4.01 1.36-1.27 2.54-2.67 2.84-4.62.08-.55-.08-1.06-.17-1.58 1.43.56 2.13 2.09 1.69 3.69-.34 1.24-1.06 2.26-1.9 3.21-1.01 1.14-2.24 2.03-3.38 3.02a74 74 0 0 0-6.39 6.28c-2.21 2.43-4.29 4.98-6.18 7.66-2.51 3.55-4.79 7.23-6.19 11.39-.38 1.12-.61 2.28-.7 3.46-.07.87.16 1.72.41 2.55M52.78 62c.92.17 1.82.43 2.77.46 2.66.08 5.09-.71 7.44-1.86 3.14-1.53 5.94-3.58 8.69-5.69 3-2.3 5.85-4.8 9.02-6.89 1.2-.8 2.46-1.5 3.89-1.81 1.88-.4 4.23.52 5.21 2.06-.74-.22-1.44-.52-2.23-.58-1.74-.12-3.2.61-4.61 1.48-2.63 1.62-4.99 3.61-7.4 5.52-3.33 2.63-6.66 5.27-10.46 7.22-2.57 1.32-5.25 2.28-8.21 2.08-1.24-.08-2.46-.28-3.47-1.12-.28-.24-.55-.49-.64-.87" class="cls-1"/><path d="M142.77 99.42h-7.93c-2.45 0-4.09-1.65-4.09-4.11 0-3.2.01-6.39-.01-9.59 0-.47.14-.6.59-.57q.75.06 1.5 0c.45-.04.45.2.45.53v9.59c0 1.26.39 1.64 1.66 1.64 5.28 0 10.57 0 15.85-.01.5 0 .64.13.59.61-.04.46-.05.93 0 1.38.05.48-.16.53-.57.53-2.68-.01-5.36 0-8.04 0M165.94 99.4h-7.81c-2.38 0-4.03-1.6-4.04-3.97-.02-3.27 0-6.54-.01-9.8 0-.35.07-.5.45-.47.51.03 1.04.04 1.55 0 .41-.03.52.09.52.51-.02 3.19-.01 6.39-.01 9.58 0 1.26.4 1.66 1.64 1.66 5.3 0 10.6 0 15.9-.01.47 0 .61.12.57.58-.04.48-.03.96 0 1.44.03.4-.13.49-.51.49-2.75-.01-5.5 0-8.25 0Z" class="cls-2"/><path d="M101.02 51.02c-.88-.47-1.43-1.26-1.87-2.11-.63-1.21-.91-2.53-1-3.88-.21-3.23.49-6.3 1.65-9.29 1.45-3.72 3.65-6.99 6.13-10.08.53-.66 1.05-1.33 1.48-2.07.74-1.26 1.02-2.56.37-3.95 2.07 1.32 2.6 3.1 1.34 5.34-.88 1.56-2.12 2.87-3.18 4.31-2.7 3.66-4.81 7.6-5.75 12.08-.59 2.79-.74 5.59.26 8.33.16.45.38.88.57 1.31ZM33.26 25.54c3.04.53 5.78-.52 8.53-1.56 4.12-1.56 8.12-3.42 12.24-4.99 2.13-.82 4.28-1.62 6.56-1.94.84-.12 1.7-.17 2.51.18.56.25 1.03.6 1.01 1.31-2.44-.15-4.69.62-6.93 1.43-4.29 1.54-8.41 3.48-12.66 5.13-2.11.82-4.2 1.7-6.47 2.03-1.14.17-2.28.22-3.38-.17-.68-.24-1.26-.62-1.4-1.42Z" class="cls-1"/><path d="M126.06 92.32c0 2.19-.01 4.39.01 6.58 0 .42-.12.55-.53.52-.5-.03-1-.04-1.49 0-.43.03-.52-.13-.51-.53.02-2.93 0-5.87 0-8.8 0-1.48.02-2.95-.01-4.43 0-.43.13-.54.53-.51.51.03 1.03.03 1.55 0 .38-.02.46.12.46.47-.01 2.23 0 4.46 0 6.7ZM179.21 92.26c0-2.19.01-4.39-.01-6.58 0-.42.1-.55.52-.52.5.04 1 .04 1.49 0 .41-.03.53.1.52.52-.02 2.29-.01 4.57-.01 6.86 0 2.12-.01 4.24 0 6.36 0 .41-.1.56-.52.53-.51-.04-1.03-.03-1.55 0-.36.02-.47-.1-.46-.47.02-2.23 0-4.46 0-6.7ZM30.7 98.14q0 1.3-1.32 1.3t-1.19-1.21 1.32-1.3 1.19 1.21" class="cls-2"/></svg>