<svg xmlns="http://www.w3.org/2000/svg" width="130" height="39" viewBox="0 0 130 39"><title>teba_logo</title><g fill="none" fill-rule="evenodd"><ellipse cx="18.789" cy="19.297" fill="#ffb200" rx="18.789" ry="19.297"/><path fill="#0f1010" fill-rule="nonzero" d="m120.41 23.196-4.052 1.06c-4.186 1.449-6.235 2.357-7.17 4.476-.134.39-.401 1.06-.401 2.098 0 .26 0 .93.267 1.58.267.778 1.492 2.357 3.92 2.357 1.09 0 3.384-.39 5.544-2.228.4-.26 1.09-.93 1.892-1.838zm-.133-2.358V19.39c0-.778-.134-2.638-2.16-3.936-.401-.26-1.492-.778-2.85-.778-2.85 0-4.877 1.968-5.411 2.638-.535.649-.802 1.19-.958 1.45l-2.427-1.71c1.091-1.319 2.026-2.486 3.385-3.416.801-.52 2.56-1.45 5.277-1.45 3.385 0 6.636 1.58 7.838 4.607.4 1.19.4 2.487.4 2.898v13.799c.134 2.357.268 2.638.535 3.936h-3.384c-.268-1.19-.401-1.58-.401-3.677l-1.225 1.19c-.801.778-3.117 2.638-6.368 2.638-.535 0-1.76 0-3.118-.649-3.384-1.449-3.785-4.866-3.785-6.055 0-1.839.668-3.547 1.893-4.867 2.338-2.552 5.99-3.59 12.759-5.169M86.633 19.027v12.232c.265.402.53.805.794 1.23.397.537 2.404 3.399 5.227 3.399 1.742 0 3.484-1.096 4.565-2.572 1.478-2.035 1.742-5.3 1.742-7.871 0-.537 0-5.434-2.139-8.163-1.477-1.9-3.22-2.169-4.146-2.169-.794 0-2.271.134-3.749 1.364-1.103.783-2.161 2.281-2.294 2.55M83.281 2.03h3.485v13.462c2.007-1.9 3.616-3.265 6.44-3.265 1.345 0 3.748.269 6.02 2.729 1.478 1.766 3.352 5.031 3.352 10.331 0 6.262-2.007 9.37-4.014 11.137-2.139 1.9-4.146 2.169-5.226 2.169-.949 0-1.743-.269-2.14-.269-2.006-.67-3.22-1.9-4.565-3.399l-.132 3.4h-3.087V2.03zM39.61 2.031V5.11h9.79v32.47h3.8V5.108h9.769V2.03zM62.02 23.02h11.588c-.255-2.692-.509-4.964-2.585-6.84-.381-.397-1.546-1.345-3.093-1.345-1.419 0-2.436.794-2.838 1.08-2.31 1.743-2.69 4.28-3.072 7.104m14.807 2.823H62.02c0 .662.127 1.346.254 2.007.128.949.382 4.015 2.585 6.177 1.546 1.478 2.965 1.61 3.855 1.61.381 0 1.038 0 2.055-.396 1.42-.53 2.309-1.214 4.11-3.75l2.308 1.61c-.91 1.345-3.22 5.493-8.494 5.493-1.165 0-2.182-.265-3.347-.662-4.893-2.008-6.44-8.184-6.44-13.148 0-4.147 1.165-8.184 4.512-10.721.763-.53 2.436-1.876 5.02-1.876 1.293 0 4.513.398 6.568 3.354 1.694 2.912 1.821 6.662 1.821 10.302M124.528 4.534v1.314h.891c.622 0 .746-.353.746-.588-.124-.707-.621-.707-.89-.707zm0 3.591h-.622V4.063h1.513c.746 0 1.265.353 1.265 1.079s-.498.962-.746 1.08l1.015 1.903h-.746l-.891-1.786h-.746z"/><path fill="#0f1010" fill-rule="nonzero" d="M125.938 2.031c2.225 0 4.062 1.837 4.062 4.063s-1.837 4.062-4.062 4.062-4.063-1.837-4.063-4.062a4.07 4.07 0 0 1 4.063-4.063m0 .649c-1.837 0-3.415 1.577-3.415 3.414s1.578 3.414 3.415 3.414 3.414-1.577 3.414-3.414-1.578-3.414-3.415-3.414"/></g></svg>