<svg xmlns="http://www.w3.org/2000/svg" fill="none" viewBox="0 0 193 33"><path fill="#ff8200" d="M71.264 13.623 69.63 9.567h-6.458l-1.707 4.056h-1.113L66.142.127h.593l5.79 13.496zm-4.9-11.874-2.82 6.86h5.641zM93.529 13.624V6.912H85.14v6.712H84.1V.2h1.04v5.753h8.388V.2h1.04v13.423zM106.892 13.919c-3.638 0-6.83-2.655-6.83-6.933 0-4.277 3.192-6.932 6.83-6.932 3.711 0 6.829 2.655 6.829 6.932s-3.192 6.933-6.829 6.933m0-12.98c-3.044 0-5.716 2.212-5.716 5.973 0 3.762 2.672 5.974 5.716 5.974 3.117 0 5.79-2.212 5.79-5.974-.075-3.76-2.747-5.973-5.79-5.973M127.748 12.222c-.891 1.107-2.153 1.623-3.861 1.623-1.633 0-2.969-.59-3.859-1.623-.891-1.106-.966-2.507-.966-3.982V.2h1.04v8.113c0 1.032 0 2.212.668 3.17.668.886 1.707 1.402 3.043 1.402s2.376-.516 3.044-1.401.668-2.139.668-3.171V.2h1.039V8.24c.074 1.549.074 2.876-.816 3.982M138.071 13.919a4.66 4.66 0 0 1-4.157-2.434l.817-.59c.519.885 1.633 2.065 3.414 2.065 1.708 0 3.192-1.106 3.192-2.802 0-1.77-1.781-2.434-2.598-2.73a22 22 0 0 1-2.227-.958c-.519-.295-1.93-1.18-1.93-3.098s1.707-3.318 4.009-3.318c2.301 0 3.414 1.548 3.563 1.77l-.743.663c-.519-.663-1.262-1.475-2.895-1.475-1.558 0-2.82.812-2.82 2.36 0 1.55 1.039 2.14 2.004 2.508.965.442 2.449 1.032 2.746 1.18s1.93 1.106 1.93 3.098c.075 2.065-1.633 3.76-4.305 3.76M147.938 13.624V.2h7.348v.959h-6.309v4.867h5.938v.96h-5.938v5.752h6.458v.885zM173.845 13.919c-3.637 0-6.829-2.655-6.829-6.933 0-4.277 3.192-6.932 6.829-6.932 3.711 0 6.829 2.655 6.829 6.932s-3.192 6.933-6.829 6.933m0-12.98c-3.044 0-5.716 2.212-5.716 5.973 0 3.762 2.672 5.974 5.716 5.974 3.118 0 5.79-2.212 5.79-5.974-.074-3.76-2.747-5.973-5.79-5.973M186.172.201v13.423h1.039V7.429h5.419v-.96h-5.419V1.16h5.79V.202zM78.912 32.725v-6.711h-8.314v6.711h-1.114V19.303h1.114v5.752h8.314v-5.752h1.113v13.422zM95.615 32.725l-1.633-4.056h-6.458l-1.707 4.056h-1.114l5.79-13.497h.594l5.79 13.497zm-4.9-11.874-2.82 6.859h5.642zM107.786 25.498c-.816.663-1.856.958-3.118.958h-2.004v6.27h-1.039V19.302h3.118c1.262 0 2.301.221 3.117.959.817.663 1.262 1.474 1.262 2.654-.148 1.107-.594 1.918-1.336 2.582m-3.118-5.236h-2.078v5.236h2.078c1.708 0 3.192-.738 3.192-2.655 0-1.844-1.484-2.581-3.192-2.581M120.474 25.498c-.817.663-1.856.958-3.118.958h-2.004v6.27h-1.04V19.302h3.118c1.262 0 2.301.221 3.118.959.816.663 1.262 1.474 1.262 2.654-.074 1.107-.52 1.918-1.336 2.582m-3.044-5.236h-2.078v5.236h2.078c1.707 0 3.192-.738 3.192-2.655 0-1.844-1.485-2.581-3.192-2.581M127.008 19.303h1.039v13.422h-1.039zM144.455 32.725l-9.056-11.8v11.8h-1.04V19.303h1.04l8.907 11.578V19.304h1.114v13.422zM151.656 32.725V19.303h7.349v.959h-6.31v4.867h5.939v.959h-5.939v5.679h6.459v.958zM168.063 32.946a4.66 4.66 0 0 1-4.157-2.434l.817-.59c.519.885 1.633 2.065 3.414 2.065 1.708 0 3.192-1.106 3.192-2.802 0-1.77-1.781-2.434-2.598-2.729a22 22 0 0 1-2.227-.959c-.519-.295-1.93-1.18-1.93-3.097s1.708-3.319 4.009-3.319 3.414 1.549 3.563 1.77l-.742.664c-.52-.664-1.262-1.475-2.895-1.475-1.559 0-2.821.811-2.821 2.36s1.039 2.139 2.004 2.507c.965.443 2.45 1.033 2.747 1.18s1.93 1.107 1.93 3.098c0 2.065-1.708 3.761-4.306 3.761M181.048 32.946a4.66 4.66 0 0 1-4.157-2.434l.816-.59c.52.885 1.633 2.065 3.415 2.065 1.707 0 3.117-1.106 3.117-2.802 0-1.77-1.781-2.434-2.598-2.729a22 22 0 0 1-2.227-.959c-.519-.295-1.93-1.18-1.93-3.097s1.708-3.319 4.009-3.319 3.415 1.549 3.563 1.77l-.742.664c-.52-.664-1.262-1.475-2.895-1.475-1.559 0-2.821.811-2.821 2.36s1.039 2.139 2.004 2.507c.965.443 2.45 1.033 2.747 1.18s1.93 1.107 1.93 3.098c.074 2.065-1.633 3.761-4.231 3.761M32.513 13.845V.054H28.06v9.071L19.45.127v.074l-.075-.074-8.982 8.924V.054h-4.38v13.422L0 19.45l3.118 3.245 2.895-2.876v13.127h4.38V15.394l8.981-8.85 8.685 9.145v17.257h4.454V20.335l2.301 2.434 3.192-3.171zM49.735 32.946h-.891V.054h.89z"/></svg>