<svg xmlns="http://www.w3.org/2000/svg" id="Layer_1" data-name="Layer 1" viewBox="0 0 151 73"><defs><style>.cls-3{fill:#1b1c1b}</style></defs><title>elfa_logo</title><path d="M0 0h151v73H0z" style="fill:#fff"/><path d="M108.91 9.46a12.06 12.06 0 0 1 3.73 9.77h-12.36c0-2.52-.07-5.37-2.19-6.82a7.53 7.53 0 0 0-7.25 0c-3 1.62-2.25 5.38-2.56 8.37v3.72h6.65c0 3.16-.07 5.28-.07 5.28h-6.58v4.87l-.2 13.87v1H75.12v-20h-6.79v-5.45h6.55v-.64c.13-4.36-.27-9.1 2.39-12.59 3.46-4.67 9.07-6 14.74-5.95 6.25-.2 12.34.64 16.9 4.57M52.14 49.34h13.3V4.62h-13.3Zm88-29.57v-1.51h1c.51 0 1.11.07 1.11.71s-.57.8-1.21.8Zm0 .71h.81l1.34 2.21h.94l-1.44-2.25a1.32 1.32 0 0 0 1.29-1.44c0-1-.64-1.48-1.88-1.48h-1.95v5.14h.84Zm5.48-.44a4.57 4.57 0 1 0-9.14 0 4.57 4.57 0 1 0 9.14 0m-1 0a3.57 3.57 0 1 1-7.13 0 3.58 3.58 0 1 1 7.13 0M43.4 27.46c2.86 2.56 5.38 5.72 5.48 9.68-.07.1 0 .27-.07.37H20.35c-.33.07-.47.47-.4.84a7.12 7.12 0 0 0 4 5.21c2.86 1.41 6.49.67 8.94-1.08A12.5 12.5 0 0 0 35 40.1l.1-.34c3.26 1.31 7.12 2.92 10.24 4.2l.14.1C42.26 47 37.92 48.5 33.73 49.4c-7.63 1.05-15.49 0-21.71-3.76-3.36-2.45-6.55-6.18-5.88-10.75.78-5.75 6.22-9.24 11.12-11 8.4-2.75 19.35-2 26.14 3.59m-15.92.27c-3.09 0-6.22 2-6.82 4.64-.1.34-.24.91-.24.91h14.51a4.9 4.9 0 0 0-.93-2.71 7.37 7.37 0 0 0-6.51-2.86M131.29 26c3.29 1.54 6.75 4.36 7.09 8.29l.13 3.06-.17 12.27c-.27.53-1.11.3-1.68.36H125c-.67-.1-.2-2.08-.57-2.31a26.5 26.5 0 0 1-15.62 2.58 6.4 6.4 0 0 1-1.14-.13C103.91 49.44 99.47 48 98 44a6.41 6.41 0 0 1 2.15-5.84c6.38-4.77 17-4.37 23.85-.81.77-.33.44-1.44.5-2.25-.06-1.75.17-3.83-1.31-5a9.41 9.41 0 0 0-9.91-.3 5.1 5.1 0 0 0-1.88 2.92c-4.06.13-8.4.17-12.39 0a1.88 1.88 0 0 1 .33-1.15c3.56-6.31 10.95-7.72 17.84-8.09A34.1 34.1 0 0 1 131.29 26m-16 13c-1.58.78-3.33 1.95-3.12 4 0 1.92 1.81 2.93 3.35 3.53 3 .91 6.62.44 8.67-1.95a4.16 4.16 0 0 0 0-4.06c-2-2.49-6-2.42-8.87-1.52" style="fill:#db2f34;fill-rule:evenodd"/><path d="M17 62.23a2.56 2.56 0 0 0-2 .87 3.48 3.48 0 0 0-.76 2.37 3.57 3.57 0 0 0 .76 2.39 2.58 2.58 0 0 0 2 .84 7 7 0 0 0 1.88-.29v.8a5.6 5.6 0 0 1-2 .31 3.41 3.41 0 0 1-2.69-1.06 4.34 4.34 0 0 1-.95-3 4.65 4.65 0 0 1 .46-2.14 3.2 3.2 0 0 1 1.3-1.41 4 4 0 0 1 2-.5 4.9 4.9 0 0 1 2.17.45l-.39.79a4.15 4.15 0 0 0-1.78-.42M24 66.13v3.28h-.91v-7.89h2.16a3.38 3.38 0 0 1 2.14.56 2 2 0 0 1 .7 1.67 2.1 2.1 0 0 1-1.59 2.12l2.14 3.54h-1.05l-1.91-3.28Zm0-.79h1.26a2.13 2.13 0 0 0 1.45-.34 1.43 1.43 0 0 0 .46-1.16 1.34 1.34 0 0 0-.46-1.13 2.53 2.53 0 0 0-1.48-.34H24ZM36.89 69.41h-4.4v-7.89h4.4v.82h-3.48v2.54h3.27v.81h-3.27v2.9h3.48ZM46.44 69.41l-1-2.51h-3.15l-1 2.51h-.93l3.12-7.92h.77l3.11 7.92Zm-1.27-3.33-.92-2.45c-.12-.31-.24-.69-.37-1.14a9 9 0 0 1-.34 1.14l-.92 2.45ZM52.82 69.41h-.92v-7.07h-2.5v-.82h5.92v.82h-2.5ZM59.09 69.41v-7.89H60v7.89ZM70.78 69.41h-1l-4.31-6.62c.06.78.09 1.49.09 2.14v4.48h-.85v-7.89h1l4.29 6.6v-6.6h.86ZM78.89 65.28h2.68v3.83a8 8 0 0 1-1.27.31 9.5 9.5 0 0 1-1.5.1 3.59 3.59 0 0 1-2.8-1.07 4.16 4.16 0 0 1-1-3 4.65 4.65 0 0 1 .49-2.16 3.3 3.3 0 0 1 1.43-1.41 4.54 4.54 0 0 1 2.17-.49 5.9 5.9 0 0 1 2.35.46l-.35.81a5.3 5.3 0 0 0-2.09-.43 3 3 0 0 0-2.25.86 3.32 3.32 0 0 0-.75 2.38 3.4 3.4 0 0 0 .78 2.42 3 3 0 0 0 2.29.83 7.2 7.2 0 0 0 1.61-.19V66.1h-1.79ZM95.48 67.31a2 2 0 0 1-.76 1.63 3.26 3.26 0 0 1-2 .58 5.2 5.2 0 0 1-2.16-.36v-.89a5.7 5.7 0 0 0 1.06.33 5.5 5.5 0 0 0 1.13.12 2.28 2.28 0 0 0 1.38-.35 1.15 1.15 0 0 0 .47-1 1.23 1.23 0 0 0-.17-.67 1.5 1.5 0 0 0-.55-.49 8 8 0 0 0-1.17-.5 3.7 3.7 0 0 1-1.57-.93 2 2 0 0 1-.48-1.41A1.74 1.74 0 0 1 91.3 62a2.85 2.85 0 0 1 1.81-.54 5.3 5.3 0 0 1 2.17.43l-.29.8a4.9 4.9 0 0 0-1.9-.41 1.86 1.86 0 0 0-1.14.31 1 1 0 0 0-.41.87 1.3 1.3 0 0 0 .15.67 1.3 1.3 0 0 0 .51.48 6.4 6.4 0 0 0 1.1.49 4.25 4.25 0 0 1 1.7.9 1.86 1.86 0 0 1 .48 1.31M104.5 63.82a2.19 2.19 0 0 1-.82 1.84 3.68 3.68 0 0 1-2.34.65h-.93v3.1h-.91v-7.89h2c2.01 0 3 .77 3 2.3m-4.09 1.7h.83a3.1 3.1 0 0 0 1.76-.39 1.45 1.45 0 0 0 .55-1.27 1.35 1.35 0 0 0-.55-1.16 2.68 2.68 0 0 0-1.6-.38h-1ZM113.09 69.41l-1-2.51H109l-1 2.51h-.92l3.12-7.92h.77l3.1 7.92Zm-1.27-3.33-.91-2.45a11 11 0 0 1-.37-1.14 9 9 0 0 1-.34 1.14l-.93 2.45ZM120.85 62.23a2.56 2.56 0 0 0-2 .87 3.47 3.47 0 0 0-.75 2.37 3.57 3.57 0 0 0 .72 2.39 2.6 2.6 0 0 0 2.07.84 7 7 0 0 0 1.89-.29v.8a5.7 5.7 0 0 1-2 .31 3.41 3.41 0 0 1-2.78-1.06 4.34 4.34 0 0 1-1-3 4.8 4.8 0 0 1 .46-2.14 3.2 3.2 0 0 1 1.32-1.41 4 4 0 0 1 2-.5 4.9 4.9 0 0 1 2.17.45l-.39.79a4.15 4.15 0 0 0-1.71-.42M131.32 69.41h-4.39v-7.89h4.39v.82h-3.48v2.54h3.27v.81h-3.27v2.9h3.48Z" class="cls-3"/></svg>