<svg xmlns="http://www.w3.org/2000/svg" data-name="Ebene 1" viewBox="0 0 1920 555.06"><path d="M943.66 317.31h.02zm-676.13-73.23c-.62-.13-1.14-.19-1.55-.19-.58 0-1.13.14-1.67.43-.54.3-.93.77-1.18 1.43-1 2.64-2.09 4.96-3.29 6.94-1.2 1.99-2.65 3.62-4.34 4.9s-3.71 2.23-6.07 2.85c-2.35.62-5.19.93-8.49.93q-6.075 0-11.28-2.85c-5.205-2.85-6.47-4.54-8.99-7.93-2.52-3.38-4.51-7.39-5.95-12.02-1.45-4.63-2.17-9.63-2.17-14.99 0-5.04.6-9.56 1.8-13.57s2.96-7.44 5.27-10.29c2.32-2.85 5.19-5.04 8.62-6.57s7.38-2.29 11.84-2.29c2.89 0 5.41.24 7.56.74s4.03 1.3 5.64 2.42c1.61 1.11 2.99 2.6 4.15 4.46s2.19 4.15 3.1 6.88c.17.66.48 1.09.93 1.3s1.01.31 1.67.31c.33 0 .83-.07 1.49-.19s1.19-.23 1.61-.31c-.91-3.31-1.61-6.7-2.11-10.17s-.83-6.32-.99-8.55c-4.3-1.15-8.29-2.02-11.96-2.6-3.68-.58-7.63-.87-11.84-.87-7.68 0-14.29 1.26-19.82 3.78s-10.08 5.78-13.63 9.79c-3.56 4.01-6.16 8.49-7.81 13.45-1.66 4.96-2.48 9.87-2.48 14.74 0 5.87.85 11.35 2.54 16.42q2.535 7.62 7.62 13.26c5.085 5.64 7.68 6.71 12.89 8.86 5.2 2.15 11.28 3.22 18.21 3.22 5.04 0 9.67-.17 13.88-.5 4.22-.33 8.35-.87 12.4-1.61.33-1.73.73-3.53 1.18-5.39s.97-3.72 1.55-5.58c.57-1.85 1.13-3.67 1.67-5.45.54-1.77 1.06-3.36 1.55-4.77-.41-.16-.93-.31-1.55-.43Zm91.52 18.4c-1.73-.25-3.12-.52-4.15-.81-1.04-.29-1.82-.64-2.36-1.05-.54-.42-.87-.89-.99-1.43-.13-.53-.19-1.21-.19-2.04v-62.09c0-.83.07-1.51.19-2.05s.45-1.01.99-1.43c.54-.41 1.33-.76 2.36-1.05s2.42-.56 4.15-.81c.82-.25 1.24-.95 1.24-2.11 0-.25-.01-.63-.06-1.12s-.11-.95-.19-1.36c-2.65.16-5.45.31-8.43.43-2.97.13-5.53.19-7.93.19s-5.1-.07-8.12-.19-5.85-.26-8.49-.43c-.17.41-.25.86-.25 1.36v1.12c0 1.16.41 1.86 1.24 2.11 1.73.25 3.11.52 4.15.81 1.03.29 1.79.64 2.29 1.05.49.42.82.89.99 1.43s.25 1.23.25 2.05v26.39h-33.46v-26.39c0-.83.07-1.51.19-2.05s.45-1.01.99-1.43c.54-.41 1.33-.76 2.36-1.05s2.41-.56 4.15-.81c.82-.25 1.24-.95 1.24-2.11 0-.25-.02-.62-.06-1.12-.05-.49-.11-.95-.19-1.36-2.64.16-5.49.31-8.55.43-3.06.13-5.75.19-8.06.19s-4.96-.07-7.93-.19c-2.98-.12-5.79-.26-8.43-.43-.17.41-.25.86-.25 1.36v1.12c0 1.16.41 1.86 1.24 2.11 1.73.25 3.12.52 4.15.81s1.8.64 2.29 1.05c.49.42.82.89.99 1.43s.25 1.23.25 2.05v62.09c0 .82-.09 1.5-.25 2.04-.17.54-.49 1.02-.99 1.43-.49.41-1.26.76-2.29 1.05s-2.41.56-4.15.81c-.83.09-1.24.79-1.24 2.11v1.12c0 .5.08.91.25 1.24 2.64-.16 5.45-.31 8.43-.43 2.97-.13 5.62-.19 7.93-.19s5 .07 8.06.19c3.05.12 5.91.26 8.55.43.08-.33.15-.75.19-1.24.04-.5.06-.87.06-1.12 0-1.24-.42-1.94-1.24-2.11-1.73-.25-3.12-.52-4.15-.81-1.04-.29-1.82-.64-2.36-1.05-.54-.42-.87-.89-.99-1.43-.13-.53-.19-1.21-.19-2.04v-29.12h33.46v29.12c0 .82-.09 1.5-.25 2.04-.17.54-.5 1.02-.99 1.43s-1.26.76-2.29 1.05-2.41.56-4.15.81c-.83.09-1.24.79-1.24 2.11v1.12c0 .5.08.91.25 1.24 2.64-.16 5.47-.31 8.49-.43 3.02-.13 5.81-.19 8.12-.19s4.96.07 7.93.19c2.98.12 5.78.26 8.43.43.09-.33.15-.75.19-1.24.04-.5.06-.87.06-1.12 0-1.24-.42-1.94-1.24-2.11m90.21.93c-.25-.29-.58-.48-.99-.56-1.65-.41-3.45-1.03-5.39-1.86-1.94-.82-3.65-2.31-5.14-4.46l-19.45-28.38c4.71-1.82 8.4-4.53 11.09-8.12s4.03-7.58 4.03-11.96c0-3.3-.64-6.32-1.92-9.05s-3.14-5.09-5.58-7.07c-2.44-1.99-5.39-3.52-8.86-4.59-3.48-1.07-7.4-1.61-11.78-1.61h-18.71c-2.4 0-5.1-.07-8.12-.19s-5.69-.26-8-.43c-.17.25-.25.58-.25.99v1.12c0 .83.12 1.41.37 1.74s.57.58.99.74c3.39.41 5.68.99 6.88 1.73q1.8 1.125 1.8 3.6v62.09c0 .82-.1 1.5-.31 2.04s-.6.99-1.18 1.36-1.41.7-2.48.99c-1.08.29-2.48.6-4.22.93-.91.17-1.36.96-1.36 2.36v.99c0 .42.08.79.25 1.12 2.4-.16 4.98-.31 7.75-.43 2.77-.13 5.65-.19 8.62-.19 4.21 0 8.11.07 11.71.19s6.59.26 8.99.43c.17-.82.25-1.57.25-2.23 0-1.49-.58-2.31-1.74-2.48-3.88-.49-6.63-1.13-8.24-1.92s-2.42-2.13-2.42-4.03v-25.9h5.33l19.21 28.38c1.65 2.39 3.35 4.31 5.08 5.76 1.74 1.45 3.48 2.17 5.21 2.17 1.16 0 2.62.02 4.4.06s3.55.11 5.33.19c1.77.08 3.48.15 5.14.19 1.65.04 2.93.11 3.84.19.17-.42.25-.83.25-1.24v-1.12c0-.75-.12-1.26-.37-1.55Zm-34.02-47.27c-.79 1.98-1.92 3.57-3.41 4.77s-3.27 2.04-5.33 2.54c-2.06.49-4.38.74-6.94.74h-3.72v-32.21h3.72c6.28 0 10.66 1.49 13.14 4.46q3.72 4.47 3.72 12.15c0 3.06-.4 5.58-1.18 7.56Zm73.17 46.34c-1.73-.25-3.12-.52-4.15-.81-1.04-.29-1.82-.64-2.36-1.05-.54-.42-.87-.89-.99-1.43-.13-.53-.19-1.21-.19-2.04v-62.09c0-.83.07-1.51.19-2.05s.45-1.01.99-1.43c.54-.41 1.33-.76 2.36-1.05s2.41-.56 4.15-.81c.82-.25 1.24-.95 1.24-2.11 0-.25-.02-.62-.06-1.12-.05-.49-.11-.95-.19-1.36-2.64.16-5.47.31-8.49.43-3.02.13-5.6.19-8 .19s-5.09-.07-8.06-.19c-2.98-.12-5.79-.26-8.43-.43-.17.41-.25.86-.25 1.36v1.12c0 1.16.41 1.86 1.24 2.11 1.73.25 3.12.52 4.15.81s1.8.64 2.29 1.05c.49.42.82.89.99 1.43s.25 1.23.25 2.05v62.09c0 .82-.09 1.5-.25 2.04-.17.54-.49 1.02-.99 1.43-.49.41-1.26.76-2.29 1.05s-2.41.56-4.15.81c-.83.09-1.24.79-1.24 2.11v1.12c0 .5.08.91.25 1.24 2.64-.16 5.45-.31 8.43-.43 2.98-.13 5.74-.19 8.06-.19s4.98.07 8 .19c3.01.12 5.85.26 8.49.43.08-.33.15-.75.19-1.24.04-.5.06-.87.06-1.12 0-1.24-.42-1.94-1.24-2.11m64.24-30.99c-2.1-3.05-4.75-5.58-7.93-7.56s-6.61-3.64-10.29-4.96-7.11-2.68-10.29-4.09-5.82-3.04-7.93-4.9-3.16-4.32-3.16-7.38c0-3.96 1.38-6.92 4.15-8.86 2.76-1.94 6.13-2.91 10.1-2.91 5.04 0 9.07 1.04 12.09 3.1q4.53 3.105 7.38 10.17c.16.5.49.98.99 1.43s1.32.68 2.48.68c.82 0 1.61-.12 2.34-.36-.49-2.48-.93-5.27-1.3-8.37q-.57-4.65-.81-8.37c-4.46-1.74-8.45-2.98-11.96-3.72-3.51-.75-7-1.12-10.47-1.12q-6.33 0-11.22 1.86c-3.27 1.24-6.06 2.92-8.37 5.03a20.85 20.85 0 0 0-5.27 7.45c-1.2 2.85-1.8 5.94-1.8 9.25 0 4.97 1.01 8.92 3.04 11.86q3.03 4.41 7.56 7.2c3.01 1.87 6.28 3.4 9.79 4.6s6.77 2.49 9.79 3.85c3.01 1.36 5.53 3.06 7.56 5.09s3.04 4.82 3.04 8.38c0 1.65-.29 3.27-.87 4.84s-1.44 2.94-2.6 4.1c-1.16 1.15-2.64 2.09-4.46 2.79s-4.01 1.05-6.57 1.05c-2.97 0-5.6-.33-7.87-.99s-4.27-1.71-6.01-3.16-3.27-3.31-4.59-5.58-2.52-4.98-3.59-8.12c-.33-.91-.75-1.55-1.24-1.92s-1.24-.56-2.23-.56c-1.07 0-2.03.16-2.85.49.66 3.22 1.26 6.55 1.8 9.98s.93 6.91 1.18 10.46c2.81 1.38 6.36 2.66 10.66 3.83s9.18 1.76 14.63 1.76c4.96 0 9.22-.69 12.77-2.05s6.49-3.18 8.8-5.45 4-4.9 5.08-7.87c1.07-2.97 1.61-6.03 1.61-9.17 0-4.79-1.05-8.72-3.16-11.78m86.75-32.51c-.37-1.52-.68-3.03-.93-4.52-.41-1.9-.68-3.59-.8-5.08-.13-1.48-.31-2.56-.56-3.22-.41-.75-1.07-1.12-1.98-1.12-.99 0-2.83.12-5.52.37s-5.89.37-9.61.37h-38.17c-3.8 0-7.05-.12-9.73-.37-2.69-.25-4.48-.37-5.39-.37-.99 0-1.65.38-1.98 1.12-.25.66-.46 1.74-.62 3.22s-.41 3.18-.74 5.08c-.25 1.48-.58 2.99-.99 4.52-.42 1.53-.91 3.29-1.49 5.27.33.17.83.35 1.49.56s1.24.31 1.73.31c.91 0 1.53-.38 1.86-1.12q1.485-3.225 2.91-5.52c.95-1.53 2.02-2.77 3.22-3.72 1.19-.95 2.6-1.66 4.21-2.11s3.57-.68 5.89-.68h10.91v65.19c0 1.65-.4 2.83-1.18 3.53s-2.7 1.26-5.76 1.67c-.91.17-1.46.44-1.67.81-.21.38-.31.85-.31 1.43 0 .25.02.62.06 1.12s.14.91.31 1.24c2.65-.16 5.44-.31 8.37-.43 2.94-.13 5.68-.19 8-.19s4.98.07 8 .19c3.01.12 5.84.26 8.49.43.09-.33.15-.75.19-1.24.04-.5.06-.87.06-1.12 0-1.16-.62-1.86-1.86-2.11q-2.475-.375-3.84-.81c-1.365-.435-1.61-.64-2.11-1.05-.5-.42-.81-.89-.93-1.43-.13-.53-.19-1.21-.19-2.04v-65.19h10.92c2.23 0 4.15.23 5.76.68 1.61.46 3.01 1.16 4.21 2.11 1.19.95 2.27 2.19 3.22 3.72q1.425 2.295 2.91 5.52c.41.75 1.07 1.12 1.98 1.12.49 0 1.05-.1 1.67-.31s1.13-.39 1.55-.56c-.66-1.99-1.18-3.74-1.55-5.27Zm39.98 63.5c-1.73-.25-3.12-.52-4.15-.81-1.04-.29-1.82-.64-2.36-1.05-.54-.42-.87-.89-.99-1.43-.13-.53-.19-1.21-.19-2.04v-62.09c0-.83.07-1.51.19-2.05s.45-1.01.99-1.43c.54-.41 1.33-.76 2.36-1.05s2.41-.56 4.15-.81c.82-.25 1.24-.95 1.24-2.11 0-.25-.02-.62-.06-1.12-.05-.49-.11-.95-.19-1.36-2.64.16-5.47.31-8.49.43-3.02.13-5.6.19-8 .19s-5.09-.07-8.06-.19c-2.98-.12-5.79-.26-8.43-.43-.17.41-.25.86-.25 1.36v1.12c0 1.16.41 1.86 1.24 2.11 1.73.25 3.12.52 4.15.81s1.8.64 2.29 1.05c.49.42.82.89.99 1.43s.25 1.23.25 2.05v62.09c0 .82-.09 1.5-.25 2.04-.17.54-.49 1.02-.99 1.43-.49.41-1.26.76-2.29 1.05s-2.41.56-4.15.81c-.83.09-1.24.79-1.24 2.11v1.12c0 .5.08.91.25 1.24 2.64-.16 5.45-.31 8.43-.43 2.98-.13 5.74-.19 8.06-.19s4.98.07 8 .19c3.01.12 5.85.26 8.49.43.08-.33.15-.75.19-1.24.04-.5.06-.87.06-1.12 0-1.24-.42-1.94-1.24-2.11m89.23-.25c-1.66-.25-3.19-.68-4.59-1.3-1.41-.62-2.35-1.55-2.85-2.79l-29.87-73.61c-.49-.09-.94-.15-1.36-.19s-.83-.06-1.24-.06c-1.33 0-2.32.71-2.98 2.11l-29.87 71.38c-.67 1.4-1.55 2.39-2.67 2.97s-2.96 1.12-5.52 1.61c-1.07.08-1.61.91-1.61 2.48v.99c0 .42.08.79.25 1.12 2.23-.24 4.25-.41 6.07-.49s3.55-.12 5.21-.12c2.39 0 4.83.07 7.31.19s4.84.26 7.07.43c.17-.83.25-1.53.25-2.11 0-1.41-.57-2.19-1.73-2.36-2.65-.42-4.4-.91-5.27-1.49s-1.3-1.32-1.3-2.23c0-.25.04-.62.12-1.12.08-.49.25-.94.5-1.36l6.45-17.22h26.03l6.57 17.72c.25.74.37 1.36.37 1.86 0 1.08-.52 1.88-1.55 2.42s-2.62 1.02-4.77 1.43c-.33.08-.64.31-.93.68s-.43.93-.43 1.67v.99c0 .42.08.79.25 1.12 1.16-.09 2.59-.15 4.28-.19 1.69-.05 3.41-.11 5.14-.19 1.73-.09 3.43-.15 5.08-.19s3.05-.06 4.21-.06c2.23 0 4.63.07 7.19.19s5.17.26 7.81.43c.17-.82.25-1.57.25-2.23 0-1.41-.62-2.23-1.86-2.48zm-55.28-29.37 10.78-27.88 10.54 27.88zm143.44-46.47c-.05-.41-.11-.83-.19-1.24-1.9.24-3.8.41-5.7.49s-4.18.12-6.82.12-4.96-.04-6.94-.12-4.01-.24-6.07-.49c-.17.42-.25.83-.25 1.24v.99c0 1.33.54 2.11 1.61 2.36 3.14.41 5.33.99 6.57 1.73q1.86 1.11 1.86 3.84v44h-.03l-41.15-52.04c-.58-.58-1.24-.97-1.98-1.18s-2.31-.31-4.71-.31c-1.15 0-2.66-.02-4.52-.06s-3.7-.11-5.52-.19c-1.07-.08-2.15-.15-3.22-.19-1.08-.04-2.19-.11-3.35-.19l-.12.99c-.08.25-.12.48-.12.68v.56c0 1.33.5 2.11 1.49 2.36 3.06.41 5.02.97 5.89 1.67.87.71 1.3 1.72 1.3 3.04v62.71c0 1.57-.5 2.73-1.49 3.47s-2.97 1.36-5.95 1.86c-.41.08-.76.29-1.05.62-.29.34-.43.92-.43 1.74v.99c0 .42.08.79.25 1.12 1.81-.16 3.82-.31 6.01-.43 2.19-.13 4.49-.19 6.88-.19s4.5.07 6.32.19 3.76.26 5.83.43c.17-.83.25-1.53.25-2.11 0-.91-.14-1.51-.43-1.8s-.64-.48-1.05-.56c-1.73-.33-3.12-.64-4.15-.93-1.04-.29-1.82-.62-2.36-.99s-.87-.82-.99-1.36c-.13-.53-.19-1.21-.19-2.04v-53.53l48.82 61.96c.75.91 1.45 1.51 2.11 1.8.66.28 1.28.43 1.86.43.25 0 .76-.02 1.55-.06.78-.05 1.34-.11 1.67-.19v-72.5c0-1.66.5-2.86 1.49-3.6s2.85-1.32 5.58-1.73c1-.17 1.49-.95 1.49-2.36 0-.25-.02-.57-.06-.99h.01Zm97.08 13.02a60 60 0 0 1-.87-4.09q-.63-2.85-.87-5.52c-.17-1.78-.37-3-.62-3.66-.41-.75-1.07-1.12-1.98-1.12s-2.71.12-5.39.37c-2.69.25-5.93.37-9.73.37h-25.4c-1.9 0-4.21-.04-6.94-.12s-5.87-.24-9.42-.49c-.17.42-.25.81-.25 1.18v1.18c0 1.24.41 1.98 1.24 2.23 1.82.33 3.3.64 4.46.93q1.74.435 2.73 1.05c.66.42 1.09.89 1.3 1.43s.31 1.18.31 1.92l.02-.02v62.09c0 1.65-.79 2.79-2.36 3.41s-3.72 1.26-6.45 1.92c-.83.08-1.24.74-1.24 1.98v1.18c0 .54.08.97.25 1.3 1.24-.09 2.58-.15 4.03-.19 1.44-.05 2.91-.11 4.4-.19 1.49-.09 2.92-.15 4.28-.19q2.04-.06 3.78-.06c2.39 0 4.81.02 7.25.06s4.73.14 6.88.31c1.15.08 2.31.15 3.47.19 1.15.04 2.31.06 3.47.06.09-.33.15-.78.19-1.36s.06-.99.06-1.24c0-1.32-.5-2.03-1.49-2.11-1.48-.25-2.89-.47-4.21-.68s-2.48-.5-3.47-.87c-1-.37-1.78-.82-2.36-1.36s-.87-1.22-.87-2.05v-27.76h17.1c1.41 0 2.44.69 3.1 2.05s1.16 3.37 1.49 6.01c.25 1.16 1.07 1.74 2.48 1.74.25 0 .62-.02 1.12-.06s.87-.14 1.12-.31c-.25-2.56-.42-4.85-.5-6.88s-.12-3.78-.12-5.27c0-1.73.07-3.86.19-6.38s.26-4.73.43-6.63c-.25-.08-.64-.15-1.18-.19s-.93-.06-1.18-.06c-1.33 0-2.11.54-2.36 1.61-.42 2.73-.93 4.78-1.55 6.14-.62 1.37-1.64 2.05-3.04 2.05h-17.1v-31.35h16.35c2.31 0 4.28.21 5.89.62 1.61.42 3.01 1.1 4.21 2.05 1.19.95 2.27 2.19 3.22 3.72q1.425 2.295 2.91 5.52c.33.75.95 1.12 1.86 1.12.5 0 1.01-.08 1.55-.25.53-.17.97-.33 1.3-.5-.66-1.9-1.16-3.51-1.49-4.83m41.77 63.07c-1.73-.25-3.12-.52-4.15-.81-1.04-.29-1.82-.64-2.36-1.05-.54-.42-.87-.89-.99-1.43-.13-.53-.19-1.21-.19-2.04v-62.09c0-.83.07-1.51.19-2.05s.45-1.01.99-1.43c.54-.41 1.33-.76 2.36-1.05s2.41-.56 4.15-.81c.82-.25 1.24-.95 1.24-2.11 0-.25-.02-.62-.06-1.12-.05-.49-.11-.95-.19-1.36-2.64.16-5.47.31-8.49.43-3.02.13-5.6.19-8 .19s-5.09-.07-8.06-.19c-2.98-.12-5.79-.26-8.43-.43-.17.41-.25.86-.25 1.36v1.12c0 1.16.41 1.86 1.24 2.11 1.73.25 3.12.52 4.15.81s1.8.64 2.29 1.05c.49.42.82.89.99 1.43s.25 1.23.25 2.05v62.09c0 .82-.09 1.5-.25 2.04-.17.54-.49 1.02-.99 1.43-.49.41-1.26.76-2.29 1.05s-2.41.56-4.15.81c-.83.09-1.24.79-1.24 2.11v1.12c0 .5.08.91.25 1.24 2.64-.16 5.45-.31 8.43-.43 2.98-.13 5.74-.19 8.06-.19s4.98.07 8 .19c3.01.12 5.85.26 8.49.43.08-.33.15-.75.19-1.24.04-.5.06-.87.06-1.12 0-1.24-.42-1.94-1.24-2.11m64.23-30.99c-2.1-3.05-4.75-5.58-7.93-7.56s-6.61-3.64-10.29-4.96-7.11-2.68-10.29-4.09-5.82-3.04-7.93-4.9-3.16-4.32-3.16-7.38c0-3.96 1.38-6.92 4.15-8.86 2.76-1.94 6.13-2.91 10.1-2.91 5.04 0 9.07 1.04 12.09 3.1q4.53 3.105 7.38 10.17c.16.5.49.98.99 1.43s1.32.68 2.48.68c.82 0 1.61-.12 2.34-.36-.49-2.48-.93-5.27-1.3-8.37q-.57-4.65-.81-8.37c-4.46-1.74-8.45-2.98-11.96-3.72-3.51-.75-7-1.12-10.47-1.12q-6.33 0-11.22 1.86c-3.27 1.24-6.06 2.92-8.37 5.03a20.85 20.85 0 0 0-5.27 7.45c-1.2 2.85-1.8 5.94-1.8 9.25 0 4.97 1.01 8.92 3.04 11.86q3.03 4.41 7.56 7.2c3.01 1.87 6.28 3.4 9.79 4.6s6.77 2.49 9.79 3.85c3.01 1.36 5.53 3.06 7.56 5.09s3.04 4.82 3.04 8.38c0 1.65-.29 3.27-.87 4.84s-1.44 2.94-2.6 4.1c-1.16 1.15-2.64 2.09-4.46 2.79s-4.01 1.05-6.57 1.05c-2.97 0-5.6-.33-7.87-.99s-4.27-1.71-6.01-3.16-3.27-3.31-4.59-5.58-2.52-4.98-3.59-8.12c-.33-.91-.75-1.55-1.24-1.92s-1.24-.56-2.23-.56c-1.07 0-2.03.16-2.85.49.66 3.22 1.26 6.55 1.8 9.98s.93 6.91 1.18 10.46c2.81 1.38 6.36 2.66 10.66 3.83s9.18 1.76 14.62 1.76c4.96 0 9.22-.69 12.77-2.05s6.49-3.18 8.8-5.45 4-4.9 5.08-7.87c1.07-2.97 1.61-6.03 1.61-9.17 0-4.79-1.05-8.72-3.16-11.78zm84.78 12.59c-.62-.13-1.14-.19-1.55-.19-.58 0-1.13.14-1.67.43-.54.3-.93.77-1.18 1.43-1 2.64-2.09 4.96-3.29 6.94-1.2 1.99-2.65 3.62-4.34 4.9s-3.71 2.23-6.07 2.85c-2.35.62-5.19.93-8.49.93q-6.075 0-11.28-2.85c-5.205-2.85-6.47-4.54-8.99-7.93-2.52-3.38-4.51-7.39-5.95-12.02-1.45-4.63-2.17-9.63-2.17-14.99 0-5.04.6-9.56 1.8-13.57s2.96-7.44 5.27-10.29c2.32-2.85 5.19-5.04 8.62-6.57s7.38-2.29 11.84-2.29c2.89 0 5.41.24 7.56.74s4.03 1.31 5.64 2.42 2.99 2.6 4.15 4.46 2.19 4.15 3.1 6.88c.17.66.48 1.09.93 1.3s1.01.31 1.67.31c.33 0 .83-.07 1.49-.19s1.19-.23 1.61-.31c-.91-3.31-1.61-6.7-2.11-10.17s-.83-6.32-.99-8.55c-4.3-1.15-8.29-2.02-11.96-2.6-3.68-.58-7.63-.87-11.84-.87-7.68 0-14.29 1.26-19.82 3.78s-10.08 5.78-13.63 9.79c-3.56 4.01-6.16 8.49-7.81 13.45-1.66 4.96-2.48 9.87-2.48 14.74 0 5.87.85 11.35 2.54 16.42q2.535 7.62 7.62 13.26c5.085 5.64 7.68 6.71 12.89 8.86 5.2 2.15 11.28 3.22 18.21 3.22 5.04 0 9.67-.17 13.88-.5 4.22-.33 8.35-.87 12.4-1.61.33-1.73.73-3.53 1.18-5.39s.97-3.72 1.55-5.58c.57-1.85 1.13-3.67 1.67-5.45.54-1.77 1.06-3.36 1.55-4.77-.41-.16-.93-.31-1.55-.43Zm91.51 18.4c-1.73-.25-3.12-.52-4.15-.81-1.04-.29-1.82-.64-2.36-1.05-.54-.42-.87-.89-.99-1.43-.13-.53-.19-1.21-.19-2.04v-62.09c0-.83.07-1.51.19-2.05s.45-1.01.99-1.43c.54-.41 1.33-.76 2.36-1.05s2.42-.56 4.15-.81c.82-.25 1.24-.95 1.24-2.11 0-.25-.01-.63-.06-1.12s-.11-.95-.19-1.36c-2.65.16-5.45.31-8.43.43-2.97.13-5.53.19-7.93.19s-5.1-.07-8.12-.19-5.85-.26-8.49-.43c-.17.41-.25.86-.25 1.36v1.12c0 1.16.41 1.86 1.24 2.11 1.73.25 3.11.52 4.15.81 1.03.29 1.79.64 2.29 1.05.49.42.82.89.99 1.43s.25 1.23.25 2.05v26.39h-33.46v-26.39c0-.83.07-1.51.19-2.05s.45-1.01.99-1.43c.54-.41 1.33-.76 2.36-1.05s2.41-.56 4.15-.81c.82-.25 1.24-.95 1.24-2.11 0-.25-.02-.62-.06-1.12-.05-.49-.11-.95-.19-1.36-2.64.16-5.49.31-8.55.43-3.06.13-5.75.19-8.06.19s-4.96-.07-7.93-.19c-2.98-.12-5.79-.26-8.43-.43-.17.41-.25.86-.25 1.36v1.12c0 1.16.41 1.86 1.24 2.11 1.73.25 3.12.52 4.15.81s1.8.64 2.29 1.05c.49.42.82.89.99 1.43s.25 1.23.25 2.05v62.09c0 .82-.09 1.5-.25 2.04-.17.54-.49 1.02-.99 1.43-.49.41-1.26.76-2.29 1.05s-2.41.56-4.15.81c-.83.09-1.24.79-1.24 2.11v1.12c0 .5.08.91.25 1.24 2.64-.16 5.45-.31 8.43-.43 2.97-.13 5.62-.19 7.93-.19s5 .07 8.06.19c3.05.12 5.91.26 8.55.43.08-.33.15-.75.19-1.24.04-.5.06-.87.06-1.12 0-1.24-.42-1.94-1.24-2.11-1.73-.25-3.12-.52-4.15-.81-1.04-.29-1.82-.64-2.36-1.05-.54-.42-.87-.89-.99-1.43-.13-.53-.19-1.21-.19-2.04v-29.12h33.46v29.12c0 .82-.09 1.5-.25 2.04-.17.54-.5 1.02-.99 1.43s-1.26.76-2.29 1.05-2.41.56-4.15.81c-.83.09-1.24.79-1.24 2.11v1.12c0 .5.08.91.25 1.24 2.64-.16 5.47-.31 8.49-.43 3.02-.13 5.81-.19 8.12-.19s4.96.07 7.93.19c2.98.12 5.78.26 8.43.43.09-.33.15-.75.19-1.24.04-.5.06-.87.06-1.12 0-1.24-.42-1.94-1.24-2.11m77.26-27.02c-1.2-2.31-2.87-4.32-5.02-6.01s-4.69-3.06-7.62-4.09c-2.94-1.04-6.14-1.72-9.61-2.05v-.37c4.79-1.32 8.76-3.41 11.9-6.26s4.71-6.68 4.71-11.47c0-2.57-.43-5.02-1.3-7.38s-2.34-4.44-4.4-6.26c-2.07-1.82-4.84-3.25-8.31-4.28s-7.85-1.55-13.14-1.55h-17.1c-1.98 0-4.52-.07-7.62-.19s-5.89-.26-8.37-.43q-.12.375-.12.87c-.08.17-.12.35-.12.56v.56c0 .66.08 1.22.25 1.67s.58.77 1.24.93c3.14.5 5.24 1.1 6.32 1.8 1.07.7 1.61 1.88 1.61 3.53v62.09c0 1.65-.6 2.85-1.8 3.59-1.2.75-3.25 1.33-6.14 1.74-.41.09-.76.27-1.05.56s-.43.89-.43 1.8v.56c0 .2.04.43.12.68l.12.87q1.365 0 2.85-.06c1-.05 1.99-.11 2.98-.19 1.65-.17 3.41-.27 5.27-.31s3.53-.06 5.02-.06h21.44c4.55 0 8.68-.5 12.4-1.49s6.88-2.46 9.48-4.4 4.62-4.36 6.07-7.25 2.17-6.24 2.17-10.04c0-2.81-.6-5.38-1.8-7.69zm-41.07-43.49h1.98c2.98 0 5.54.35 7.69 1.05s3.89 1.67 5.21 2.91 2.29 2.71 2.91 4.4.93 3.41.93 5.39-.27 3.88-.81 5.7-1.45 3.46-2.73 4.9c-1.28 1.45-2.99 2.59-5.14 3.41-2.15.83-4.84 1.24-8.06 1.24h-1.98zm21.57 64.75c-2.81 2.44-7.07 3.66-12.77 3.66-2.32 0-4.36-.27-6.14-.81s-2.67-1.76-2.67-3.66h.01v-28.76h6.69c2.56 0 4.99.37 7.31 1.12s4.34 1.84 6.08 3.29c1.73 1.45 3.12 3.29 4.15 5.52s1.55 4.84 1.55 7.81c0 5.46-1.4 9.4-4.21 11.84Zm103.09 5.51c-1.66-.25-3.19-.68-4.59-1.3-1.41-.62-2.35-1.55-2.85-2.79l-29.87-73.61c-.49-.09-.94-.15-1.36-.19s-.83-.06-1.24-.06c-1.33 0-2.32.71-2.98 2.11l-29.87 71.38c-.67 1.4-1.55 2.39-2.67 2.97s-2.96 1.12-5.52 1.61c-1.07.08-1.61.91-1.61 2.48v.99c0 .42.08.79.25 1.12 2.23-.24 4.25-.41 6.07-.49s3.55-.12 5.21-.12c2.39 0 4.83.07 7.31.19s4.84.26 7.07.43c.17-.83.25-1.53.25-2.11 0-1.41-.57-2.19-1.73-2.36-2.65-.42-4.4-.91-5.27-1.49s-1.3-1.32-1.3-2.23c0-.25.04-.62.12-1.12.08-.49.25-.94.5-1.36l6.45-17.22h26.03l6.57 17.72c.25.74.37 1.36.37 1.86 0 1.08-.52 1.88-1.55 2.42s-2.62 1.02-4.77 1.43c-.33.08-.64.31-.93.68s-.43.93-.43 1.67v.99c0 .42.08.79.25 1.12 1.16-.09 2.59-.15 4.28-.19 1.69-.05 3.41-.11 5.14-.19 1.73-.09 3.43-.15 5.08-.19s3.05-.06 4.21-.06c2.23 0 4.63.07 7.19.19s5.17.26 7.81.43c.17-.82.25-1.57.25-2.23 0-1.41-.62-2.23-1.86-2.48Zm-55.27-29.37 10.78-27.88 10.54 27.88zm128.57 11.22c-.62-.13-1.14-.19-1.55-.19-.58 0-1.13.14-1.67.43-.54.3-.93.77-1.18 1.43-1 2.64-2.09 4.96-3.29 6.94-1.2 1.99-2.65 3.62-4.34 4.9s-3.71 2.23-6.07 2.85c-2.35.62-5.19.93-8.49.93q-6.075 0-11.28-2.85c-5.205-2.85-6.47-4.54-8.99-7.93-2.52-3.38-4.51-7.39-5.95-12.02-1.45-4.63-2.17-9.63-2.17-14.99 0-5.04.6-9.56 1.8-13.57s2.96-7.44 5.27-10.29c2.32-2.85 5.19-5.04 8.62-6.57s7.38-2.29 11.84-2.29c2.89 0 5.41.24 7.56.74s4.03 1.31 5.64 2.42 2.99 2.6 4.15 4.46 2.19 4.15 3.1 6.88c.17.66.48 1.09.93 1.3s1.01.31 1.67.31c.33 0 .83-.07 1.49-.19s1.19-.23 1.61-.31c-.91-3.31-1.61-6.7-2.11-10.17s-.83-6.32-.99-8.55c-4.3-1.15-8.29-2.02-11.96-2.6-3.68-.58-7.63-.87-11.84-.87-7.68 0-14.29 1.26-19.82 3.78s-10.08 5.78-13.63 9.79c-3.56 4.01-6.16 8.49-7.81 13.45-1.66 4.96-2.48 9.87-2.48 14.74 0 5.87.85 11.35 2.54 16.42q2.535 7.62 7.62 13.26c5.085 5.64 7.68 6.71 12.89 8.86 5.2 2.15 11.28 3.22 18.21 3.22 5.04 0 9.67-.17 13.88-.5 4.22-.33 8.35-.87 12.4-1.61.33-1.73.73-3.53 1.18-5.39s.97-3.72 1.55-5.58c.57-1.85 1.13-3.67 1.67-5.45.54-1.77 1.06-3.36 1.55-4.77-.41-.16-.93-.31-1.55-.43Zm91.52 18.4c-1.73-.25-3.12-.52-4.15-.81-1.04-.29-1.82-.64-2.36-1.05-.54-.42-.87-.89-.99-1.43-.13-.53-.19-1.21-.19-2.04v-62.09c0-.83.07-1.51.19-2.05s.45-1.01.99-1.43c.54-.41 1.33-.76 2.36-1.05s2.42-.56 4.15-.81c.82-.25 1.24-.95 1.24-2.11 0-.25-.02-.62-.06-1.12-.05-.49-.11-.95-.19-1.36-2.65.16-5.45.31-8.43.43-2.97.13-5.53.19-7.93.19s-5.1-.07-8.12-.19-5.85-.26-8.49-.43c-.17.41-.25.86-.25 1.36v1.12c0 1.16.41 1.86 1.24 2.11 1.73.25 3.11.52 4.15.81 1.03.29 1.79.64 2.29 1.05.49.42.82.89.99 1.43s.25 1.23.25 2.05v26.39h-33.46v-26.39c0-.83.07-1.51.19-2.05s.45-1.01.99-1.43c.54-.41 1.33-.76 2.36-1.05s2.41-.56 4.15-.81c.82-.25 1.24-.95 1.24-2.11 0-.25-.02-.62-.06-1.12-.05-.49-.11-.95-.19-1.36-2.64.16-5.49.31-8.55.43-3.06.13-5.75.19-8.06.19s-4.96-.07-7.93-.19c-2.98-.12-5.79-.26-8.43-.43-.17.41-.25.86-.25 1.36v1.12c0 1.16.41 1.86 1.24 2.11 1.73.25 3.12.52 4.15.81s1.8.64 2.29 1.05c.49.42.82.89.99 1.43s.25 1.23.25 2.05v62.09c0 .82-.09 1.5-.25 2.04-.17.54-.49 1.02-.99 1.43-.49.41-1.26.76-2.29 1.05s-2.41.56-4.15.81c-.83.09-1.24.79-1.24 2.11v1.12c0 .5.08.91.25 1.24 2.64-.16 5.45-.31 8.43-.43 2.97-.13 5.62-.19 7.93-.19s5 .07 8.06.19c3.05.12 5.91.26 8.55.43.08-.33.15-.75.19-1.24.04-.5.06-.87.06-1.12 0-1.24-.42-1.94-1.24-2.11-1.73-.25-3.12-.52-4.15-.81-1.04-.29-1.82-.64-2.36-1.05-.54-.42-.87-.89-.99-1.43-.13-.53-.19-1.21-.19-2.04v-29.12h33.46v29.12c0 .82-.09 1.5-.25 2.04-.17.54-.5 1.02-.99 1.43s-1.26.76-2.29 1.05-2.41.56-4.15.81c-.83.09-1.24.79-1.24 2.11v1.12c0 .5.08.91.25 1.24 2.64-.16 5.47-.31 8.49-.43 3.02-.13 5.81-.19 8.12-.19s4.96.07 7.93.19c2.98.12 5.78.26 8.43.43.09-.33.15-.75.19-1.24.04-.5.06-.87.06-1.12 0-1.24-.42-1.94-1.24-2.11m76.56-16.22c-.58-.25-1.08-.37-1.49-.37-.91 0-1.48.29-1.73.87-1 1.98-1.99 3.78-2.98 5.39s-2.15 3.01-3.47 4.21-2.83 2.13-4.52 2.79-3.78.99-6.26.99h-5.21c-5.13 0-8.76-.29-10.91-.87s-3.22-1.73-3.22-3.47v-27.76h17.47c1.41 0 2.42.55 3.04 1.67.62 1.11 1.17 3.24 1.67 6.38.09 1.16.87 1.74 2.36 1.74.25 0 .64-.02 1.18-.06s.93-.14 1.18-.31c-.25-2.56-.42-4.85-.5-6.88s-.12-3.78-.12-5.27c0-1.73.07-3.86.19-6.38s.26-4.73.43-6.63c-.25-.09-.64-.15-1.18-.19s-.93-.06-1.18-.06c-.66 0-1.2.11-1.61.31-.41.21-.66.64-.74 1.3-.42 2.89-.91 4.98-1.49 6.26s-1.65 1.92-3.22 1.92h-17.47v-29.87h16.49c2.24 0 4.16.2 5.77.61 1.61.42 3.01 1.1 4.21 2.05 1.19.95 2.27 2.19 3.22 3.72s1.92 3.37 2.91 5.52c.41.75 1.07 1.12 1.98 1.12.5 0 .99-.08 1.49-.25.49-.17.95-.33 1.36-.5-.67-1.9-1.16-3.51-1.49-4.83s-.62-2.68-.87-4.09q-.63-2.85-.87-5.52c-.17-1.78-.37-3-.62-3.66-.41-.75-1.07-1.12-1.98-1.12-1 0-2.84.12-5.52.37-2.69.25-5.89.37-9.61.37h-25.4c-1.99 0-4.34-.04-7.07-.12s-5.87-.24-9.42-.49c-.17.42-.25.81-.25 1.18v1.18c0 1.24.41 1.98 1.24 2.23 1.74.33 3.16.64 4.28.93s2.03.62 2.73.99c.71.37 1.18.82 1.43 1.36s.37 1.23.37 2.05v62.09c0 1.65-.68 2.81-2.04 3.47-1.37.66-3.62 1.28-6.76 1.86-.83.08-1.24.74-1.24 1.98v1.18c0 .54.08.97.25 1.3 2.48-.16 5.27-.31 8.37-.43 3.1-.13 5.84-.19 8.24-.19h28.13q1.605 0 3.84.12c1.49.09 2.95.15 4.4.19s2.79.11 4.03.19q1.86.12 2.85.12 1.485 0 1.98-.99c.08-.25.22-.75.43-1.49.2-.74.41-1.59.62-2.54.2-.94.41-1.94.62-2.97s.39-1.96.56-2.79c.24-.66.49-1.52.74-2.6.25-1.07.57-2.06.99-2.97.17-.58.35-1.16.56-1.74s.39-1.2.56-1.86c-.58-.24-1.16-.49-1.74-.74Zm88.86 17.15c-.25-.29-.58-.48-.99-.56-1.65-.41-3.45-1.03-5.39-1.86-1.94-.82-3.65-2.31-5.14-4.46l-19.45-28.38c4.71-1.82 8.4-4.53 11.09-8.12s4.03-7.58 4.03-11.96c0-3.3-.64-6.32-1.92-9.05s-3.14-5.09-5.58-7.07c-2.44-1.99-5.39-3.52-8.86-4.59-3.48-1.07-7.4-1.61-11.78-1.61h-18.71c-2.4 0-5.1-.07-8.12-.19s-5.69-.26-8-.43c-.17.25-.25.58-.25.99v1.12c0 .83.12 1.41.37 1.74s.57.58.99.74c3.39.41 5.68.99 6.88 1.73q1.8 1.125 1.8 3.6v62.09c0 .82-.1 1.5-.31 2.04s-.6.99-1.18 1.36-1.41.7-2.48.99c-1.08.29-2.48.6-4.22.93-.91.17-1.36.96-1.36 2.36v.99c0 .42.08.79.25 1.12 2.4-.16 4.98-.31 7.75-.43 2.77-.13 5.65-.19 8.62-.19 4.21 0 8.11.07 11.71.19s6.59.26 8.99.43c.17-.82.25-1.57.25-2.23 0-1.49-.58-2.31-1.74-2.48-3.88-.49-6.63-1.13-8.24-1.92s-2.42-2.13-2.42-4.03v-25.9h5.33l19.21 28.38c1.65 2.39 3.35 4.31 5.08 5.76 1.74 1.45 3.48 2.17 5.21 2.17 1.16 0 2.62.02 4.4.06s3.55.11 5.33.19c1.77.08 3.48.15 5.14.19 1.65.04 2.93.11 3.84.19.17-.42.25-.83.25-1.24v-1.12c0-.75-.12-1.26-.37-1.55Zm-34.02-47.27c-.79 1.98-1.92 3.57-3.41 4.77s-3.27 2.04-5.33 2.54c-2.06.49-4.38.74-6.94.74h-3.72v-32.21h3.72c6.28 0 10.66 1.49 13.14 4.46q3.72 4.47 3.72 12.15c0 3.06-.4 5.58-1.18 7.56ZM709.84 358.63h6.17c.43 3.47 1.83 6.37 7.67 6.37 3.81 0 6.51-2.12 6.51-5.3s-1.59-4.39-7.19-5.31c-8.25-1.11-12.16-3.62-12.16-10.08 0-5.64 4.82-9.89 12.01-9.89s11.87 3.38 12.54 9.98h-5.88c-.63-3.62-2.7-5.16-6.66-5.16s-5.93 1.88-5.93 4.53c0 2.8 1.16 4.2 7.14 5.06 8.1 1.11 12.3 3.43 12.3 10.32 0 5.98-5.07 10.66-12.69 10.66-9.41 0-13.36-4.68-13.84-11.19h.01Zm46.22-23.78h6.56l5.98 25.32 6.7-25.32h5.31l6.85 25.47 6.17-25.47h5.98l-8.63 34.49h-6.42l-6.8-25.13-6.99 25.13h-6.13l-8.59-34.49zm65.85 0h6.46v34.49h-6.46zm38.41 5.07h-9.6v-5.07h25.66v5.07h-9.6v29.42h-6.46zm34.73 28.55 17.61-28.56h-15.82v-5.07h24.89v.82l-17.22 28.51h16.74v5.16h-26.19v-.87h-.01Zm49.11-33.62h21.56v5.07h-15.15v9.45h12.16v4.82h-12.16v10.08h15.97v5.06h-22.38v-34.49Zm45.07 0h11.58c7.57 0 12.88 3.09 12.88 10.13v.19c0 5.4-3.38 8.15-7.67 9.26l9.7 14.9h-6.95l-9.02-13.94h-4.1v13.94h-6.41v-34.49h-.01Zm11.57 15.97c4.29 0 6.56-1.83 6.56-5.5v-.19c0-3.95-2.46-5.31-6.56-5.31h-5.16v11zm36.91-15.97h6.41v29.38h14.71v5.11h-21.13v-34.49zm52.58 0h8.39l11.38 34.49h-6.66l-2.75-8.54h-13.17l-2.7 8.54h-6.03l11.53-34.49zm-1.3 21.27h10.18l-5.06-16.01-5.11 16.01zm43.23-21.27h7.67l14.52 24.94v-24.94h5.84v34.49h-6.66l-15.53-26.43v26.43h-5.84zm52.83 0h10.47c12.01 0 17.85 6.85 17.85 16.88v.43c0 10.03-5.84 17.17-17.95 17.17h-10.37v-34.49Zm10.17 29.43c7.72 0 11.43-4.44 11.43-12.06v-.39c0-7.43-3.38-11.91-11.48-11.91h-3.71v24.36z"/></svg>