<svg xmlns="http://www.w3.org/2000/svg" class="interstillogo" viewBox="0 0 121.66 39.59"><path d="M116.28 2.47A2.47 2.47 0 1 1 113.81 0a2.47 2.47 0 0 1 2.47 2.47M119.4 0v28.7h2.26V0ZM15.25 8.15H13V28.7h2.26ZM14.12 0a2.53 2.53 0 1 0 2.52 2.53A2.53 2.53 0 0 0 14.12 0m15.32 7.14A10.48 10.48 0 0 0 19 17.62v11.14h2.25V17.62a8.23 8.23 0 0 1 16.46 0v11.14h2.26V17.62A10.49 10.49 0 0 0 29.44 7.14m-24.8 24.5-2 5.52-2-5.52H0l2.29 6.17H3l2.3-6.17ZM9 35.58a2.12 2.12 0 1 1-4.22 0 2.12 2.12 0 1 1 4.22 0m-.54 0a1.7 1.7 0 0 0-1.57-1.9 1.7 1.7 0 0 0-1.56 1.9 1.7 1.7 0 0 0 1.56 1.9 1.7 1.7 0 0 0 1.55-1.9Zm1.89-1.18v-1h-.5v4.46h.54v-2.43A1.53 1.53 0 0 1 12 33.84v-.55a1.64 1.64 0 0 0-1.67 1.11Zm4.21-1.18a1.51 1.51 0 0 0-1.43.9v-2.48h-.54v6.17h.54v-2.6a1.42 1.42 0 0 1 1.41-1.53c.88 0 1.13.58 1.13 1.35v2.78h.54v-2.87c-.04-1.06-.42-1.72-1.67-1.72Zm6.39 4.13a.5.5 0 0 0 .18 0v.46a2 2 0 0 1-.36 0c-.55 0-.64-.31-.64-.78a1.69 1.69 0 0 1-1.62.91c-.82 0-1.5-.4-1.5-1.3 0-1.26 1.22-1.3 2.4-1.44.45-.05.7-.11.7-.6 0-.74-.53-.92-1.17-.92s-1.17.31-1.19 1h-.55c.06-1 .79-1.5 1.81-1.5.79 0 1.64.24 1.64 1.44V37a.29.29 0 0 0 .28.35Zm-.86-2c-.07.13-.31.18-.46.2-.92.17-2.07.16-2.07 1a.92.92 0 0 0 1 .88 1.43 1.43 0 0 0 1.56-1.4Zm3.63-2.15a1.51 1.51 0 0 0-1.43.9v-.77h-.54v4.46h.54v-2.6a1.41 1.41 0 0 1 1.4-1.53c.89 0 1.14.58 1.14 1.35v2.78h.54v-2.85c-.04-1.06-.37-1.72-1.67-1.72Zm5.9.13h.54v4.1c0 1.33-.52 2.14-2 2.14-.89 0-1.77-.39-1.85-1.34h.55a1.18 1.18 0 0 0 1.3.89c1 0 1.44-.6 1.44-1.69v-.61a1.54 1.54 0 0 1-1.42.92c-1.42 0-2-1-2-2.29a2 2 0 0 1 2-2.25 1.58 1.58 0 0 1 1.42.9Zm0 2.18c0-.87-.41-1.85-1.44-1.85s-1.47.92-1.47 1.85.47 1.77 1.47 1.77 1.42-.84 1.42-1.75Zm1.59.16h2.16v-.51h-2.18Zm6-.51h2.1a2 2 0 0 1-2.13 2.26c-1.64 0-2.33-1.37-2.33-2.71S35.5 32 37.14 32a1.93 1.93 0 0 1 2 1.55h.59a2.42 2.42 0 0 0-2.58-2.05 2.92 2.92 0 0 0-2.91 3.22 2.91 2.91 0 0 0 2.91 3.21 2.22 2.22 0 0 0 2.13-1.25l.08 1.12h.42v-3.13h-2.61Zm7.37 2.17a.5.5 0 0 0 .18 0v.46a2 2 0 0 1-.36 0c-.55 0-.64-.31-.64-.78a1.7 1.7 0 0 1-1.62.91c-.82 0-1.5-.4-1.5-1.3 0-1.26 1.22-1.3 2.4-1.44.45-.05.7-.11.7-.6 0-.74-.53-.92-1.17-.92s-1.17.31-1.19 1h-.55c0-1 .79-1.5 1.81-1.5.79 0 1.64.24 1.64 1.44V37a.29.29 0 0 0 .26.35Zm-.86-2c-.07.13-.31.18-.46.2-.92.17-2.07.16-2.07 1a.92.92 0 0 0 1 .88 1.43 1.43 0 0 0 1.56-1.4Zm2.17-1v-1h-.5v4.46h.54v-2.36a1.53 1.53 0 0 1 1.66-1.59v-.55a1.64 1.64 0 0 0-1.74 1.11Zm4.36-1.18a1.49 1.49 0 0 0-1.42.9v-.77h-.55v4.46h.55v-2.6a1.41 1.41 0 0 1 1.4-1.53c.88 0 1.13.58 1.13 1.35v2.78h.55v-2.8c-.06-1.06-.44-1.72-1.7-1.72Zm2.69-.71h.54v-.87h-.58Zm0 5.3h.54v-4.39h-.58ZM55.39 32h-.55v1.34h-.78v.46h.78v3c0 .76.24 1 1 1h.48v-.47a4 4 0 0 1-.46 0c-.39 0-.44-.24-.44-.59v-3h.9v-.46h-.9Zm4.79 3.68c0 .91-.41 1.79-1.34 1.79s-1.17-.42-1.19-1.22v-2.9h-.55v2.9c0 1 .44 1.69 1.57 1.69a1.68 1.68 0 0 0 1.54-.94v.8h.5v-4.45h-.54Zm2.11-1.29v-1h-.5v4.46h.54v-2.42A1.53 1.53 0 0 1 64 33.84v-.55a1.64 1.64 0 0 0-1.71 1.11Zm5.83 1.33h-3.44a1.59 1.59 0 0 0 1.47 1.75 1.35 1.35 0 0 0 1.4-1.14h.55a1.82 1.82 0 0 1-1.95 1.6c-1.41 0-2-1.09-2-2.36a2.09 2.09 0 0 1 2-2.36c1.44.01 2.01 1.26 1.97 2.52Zm-3.44-.46h2.89a1.5 1.5 0 0 0-1.42-1.59 1.59 1.59 0 0 0-1.47 1.6Zm6.17-2.05a1.5 1.5 0 0 0-1.43.9v-.77h-.54v4.46h.54v-2.6a1.41 1.41 0 0 1 1.4-1.53c.88 0 1.13.58 1.13 1.35v2.78h.55v-2.86c-.02-1.06-.4-1.72-1.65-1.72ZM44.1 28.76h2.25V10.08h5.76V7.83h-5.76V0H44.1v7.83h-3.93v2.25h3.93ZM106 0h-2.25v7.81h-.18a14.9 14.9 0 0 0-14.9 14.9 4 4 0 0 1-4 4H78.5V10.08h8.28V7.83H76.24V29h8.46a6.27 6.27 0 0 0 6.3-6.29 12.64 12.64 0 0 1 12.64-12.64h.18v2.16h-.1a10.55 10.55 0 0 0-10.61 10.56 8.3 8.3 0 0 1-8.33 8.3h-8.62v2.26h8.62a10.57 10.57 0 0 0 10.59-10.56 8.31 8.31 0 0 1 8.32-8.31h.1v2h-.1a6.28 6.28 0 0 0-6.28 6.28 12.62 12.62 0 0 1-12.63 12.66H76.1v2.26h8.68a14.89 14.89 0 0 0 14.89-14.89 4 4 0 0 1 4-4h.1v9.91H106V10.07h6.47V28.7h2.26V7.81H106ZM73.62 19.34H52.7a9.31 9.31 0 0 0 9.3 8.57 9.58 9.58 0 0 0 8.88-6.11h2.46A12 12 0 0 1 62 30.17 11.58 11.58 0 0 1 62 7a11.81 11.81 0 0 1 11.5 10.73 4 4 0 0 1 0 .48c.06.31.12 1.13.12 1.13m-2.49-2.25A9.54 9.54 0 0 0 62 9.28a9.31 9.31 0 0 0-9.19 7.81Z"/></svg>