<svg xmlns="http://www.w3.org/2000/svg" width="900" height="499.606"><path d="M177.486 127.255c1.115-.277 6.858.191 6.858 0 0 .191-.539-45.932-.699-45.89.16-.042 58.832 46.27 58.782 46.266.05.004 4.825 0 4.808 0 .017 0-.22-62.612-.184-62.612-.036 0-8.263.044-8.326 0 0 .108.982 45.972.982 45.972-.006.008-57.728-45.962-57.728-45.972 0 .01-4.447 0-4.471 0 .006.01-.022 62.236-.022 62.236" style="opacity:1;fill:#000;fill-opacity:1;fill-rule:nonzero;stroke:none;stroke-width:1.25;stroke-linecap:butt;stroke-linejoin:miter;marker:none;marker-start:none;marker-mid:none;marker-end:none;stroke-miterlimit:4;stroke-dasharray:none;stroke-dashoffset:0;stroke-opacity:1;visibility:visible;display:inline;overflow:visible" transform="translate(-1.121 363.284)"/><path d="M330.269 75.657c1.75-3.102 2.792-6.148 3.533-7.526-2.215-1.472-12.645-4.524-21.13-4.423-12.246.126-24.555 6.295-24.555 18.146 0 4.228 4.56 10.765 8.642 12.43 3.357 1.367 4.112 2.759 14.53 5.815 6.345 1.864 17.733 4.836 16.32 13.425-1.675 10.148-9.294 10.727-18.598 10.814-11.173.104-19.256-8.71-19.256-8.71-.091 1.194-.567 3.074-1.95 7.765 5.173 3.04 13.684 5.35 19.78 5.754 17.464 1.142 30.79-8.957 31.192-19.912.188-5.718-4.054-12.474-11.78-15.052-3.991-1.339-6.228-2.547-16.45-5.826-4.83-1.547-10.44-3.103-11.834-9.746-.535-2.505 2.288-9.792 12.693-10.4 7.113-.416 11.31 1.245 15.522 4.792z" style="opacity:1;fill:#000;fill-opacity:1;fill-rule:nonzero;stroke:none;stroke-width:1.25;stroke-linecap:butt;stroke-linejoin:miter;marker:none;marker-start:none;marker-mid:none;marker-end:none;stroke-miterlimit:4;stroke-dasharray:none;stroke-dashoffset:0;stroke-opacity:1;visibility:visible;display:inline;overflow:visible" transform="translate(-1.121 363.284)"/><path d="M407.994 70.518c6.386 0 19.766.094 25.225.643-.273-1.465-.273-5.238 0-6.802-8.875.46-23.826.551-31.522.551-7.117 0-25.56-.09-32.87-.55.277 1.103.338 5.722.06 6.817 4.718-.45 21.708-.66 22.542-.66l4.694-.043c-.028-.059.692 56.962.648 56.934.077.028 11.703-.034 11.687 0 .016-.004-.472-56.934-.464-56.89" style="opacity:1;fill:#000;fill-opacity:1;fill-rule:nonzero;stroke:none;stroke-width:1.25;stroke-linecap:butt;stroke-linejoin:miter;marker:none;marker-start:none;marker-mid:none;marker-end:none;stroke-miterlimit:4;stroke-dasharray:none;stroke-dashoffset:0;stroke-opacity:1;visibility:visible;display:inline;overflow:visible" transform="translate(-1.121 363.284)"/><path d="M603.833 69.832c8.527 0 9.468 0 12.874.18l16.862.462c-.285-.732-.46-2.027-.46-3.402 0-1.102.175-1.836.46-2.938-6.671.183-20.936.55-25.186.55-5.011 0-12.236-.28-16.765-.55.656 9.189.838 26.927.838 30.785 0 4.23-.182 15.438-.362 20.775-.091 3.858-.282 7.626-.476 11.489 5.932-.368 11.754-.551 17.31-.551 5.928 0 21.015.183 26.57.55-.382-1.013-.473-1.926-.473-3.31 0-1.284.091-2.207.474-3.025-7.88.364-29.248.631-31.666.631V96.574c4.265 0 8.63.09 12.874.187 2.306.09 12.88.282 15.285.463-.281-.65-.447-1.842-.447-3.131 0-1.375.166-2.298.447-3.308-4.9.557-23.429.644-28.159.644z" style="opacity:1;fill:#000;fill-opacity:1;fill-rule:nonzero;stroke:none;stroke-width:1.25;stroke-linecap:butt;stroke-linejoin:miter;marker:none;marker-start:none;marker-mid:none;marker-end:none;stroke-miterlimit:4;stroke-dasharray:none;stroke-dashoffset:0;stroke-opacity:1;visibility:visible;display:inline;overflow:visible" transform="translate(-1.121 363.284)"/><path d="M825.883 63.756c.012-.008-57.641-.129-65.113.014.195 1.194.104 4.715 0 5.817.14.09 42.478.398 42.296.344.356-.099-48.852 56.578-48.898 56.65 0 0 15.449-.311 28.112-.311 18.053 0 38.37.281 41.163.366.037 0 .175-6.038.175-6.085-3.507.187-37.912.109-42.169.109h-6.165" style="opacity:1;fill:#000;fill-opacity:1;fill-rule:nonzero;stroke:none;stroke-width:1.25;stroke-linecap:butt;stroke-linejoin:miter;marker:none;marker-start:none;marker-mid:none;marker-end:none;stroke-miterlimit:4;stroke-dasharray:none;stroke-dashoffset:0;stroke-opacity:1;visibility:visible;display:inline;overflow:visible" transform="translate(-1.121 363.284)"/><path d="M701.533 71.053c6.397 0 19.766.09 25.231.641-.288-1.474-.288-5.242 0-6.802-8.889.456-23.846.553-31.518.553-7.123 0-25.567-.097-32.866-.553.275 1.098.328 5.716.055 6.82 4.71-.46 21.717-.66 22.546-.66l4.665-.054c-.018-.054.708 56.967.658 56.94.079.027 11.713-.046 11.705 0 .008-.005-.476-56.94-.476-56.885" style="opacity:1;fill:#000;fill-opacity:1;fill-rule:nonzero;stroke:none;stroke-width:1.25;stroke-linecap:butt;stroke-linejoin:miter;marker:none;marker-start:none;marker-mid:none;marker-end:none;stroke-miterlimit:4;stroke-dasharray:none;stroke-dashoffset:0;stroke-opacity:1;visibility:visible;display:inline;overflow:visible" transform="translate(-1.121 363.284)"/><path d="M478.305 95.91c0-12.737 7.763-28.16 28.624-28.16 21.232 0 28.633 13.008 28.633 28.16 0 13.29-8.008 28.16-28.633 28.16-20.861 0-28.624-14.31-28.624-28.16m28.997-32.9c-24.512 0-45.629 10.403-45.629 34.019 0 20.352 20.013 31.782 45.256 31.782 26.936 0 45.258-13.288 45.258-34.012 0-22.309-22.21-31.789-44.885-31.789" style="opacity:1;fill:#000;fill-opacity:1;fill-rule:nonzero;stroke:none;stroke-width:1.25;stroke-linecap:butt;stroke-linejoin:miter;marker:none;marker-start:none;marker-mid:none;marker-end:none;stroke-miterlimit:4;stroke-dasharray:none;stroke-dashoffset:0;stroke-opacity:1;visibility:visible;display:inline;overflow:visible" transform="translate(-1.121 363.284)"/><path d="M124.748 127.631c2.149-.086 5.46-.539 8.79-.539 3.323 0 7.48.453 9.257.539-5.343-8.72-13.17-22.308-17.686-30.134-4.279-7.556-11.408-20.149-17.102-32.478-1.306.271-2.492.452-3.796.452-1.43 0-2.616-.18-3.916-.452-2.849 7.373-9.741 19.073-21.728 39.405L64.79 127.63c1.66-.177 3.33-.539 5.342-.539 1.9 0 4.159.362 5.696.539 1.905-5.125 5.697-12.587 9.502-19.516 4.748-.183 9.5-.364 14.246-.364 5.113 0 10.096.181 15.2.364l4.987 9.533zm-13.42-25.1c-3.677.178-7.245.369-10.92.369-4.158 0-8.192-.278-12.343-.368l12.098-22.126z" style="opacity:1;fill:#000;fill-opacity:1;fill-rule:nonzero;stroke:none;stroke-width:1.25;stroke-linecap:butt;stroke-linejoin:miter;marker:none;marker-start:none;marker-mid:none;marker-end:none;stroke-miterlimit:4;stroke-dasharray:none;stroke-dashoffset:0;stroke-opacity:1;visibility:visible;display:inline;overflow:visible" transform="translate(-1.121 363.284)"/><path d="M8.208 12.035h885.827v11.133H8.208z" style="opacity:1;fill:#000;fill-opacity:1;fill-rule:nonzero;stroke:none;stroke-width:1.25;stroke-linecap:butt;stroke-linejoin:miter;marker:none;marker-start:none;marker-mid:none;marker-end:none;stroke-miterlimit:4;stroke-dasharray:none;stroke-dashoffset:0;stroke-opacity:1;visibility:visible;display:inline;overflow:visible" transform="translate(-1.121 363.284)"/><path d="M170.269-329.132c31.005 12.452 29.602 33.425 29.602 33.425l.06 194.704c-.481 81.303-44.755 78.758-64.021 71.97-15.893-4.852-31.439-16.26-31.574-30.568.074-24.983 20.687-34.9 28.355-51.462 11.002-23.732 5.952-57.477-28.355-54.957-28.805 2.113-38.826 40.058-38.814 55.494.061 71.206 70.75 96.595 112.173 91.84 37.712-4.327 89.22-27.947 91.081-110.424l.221-165.567c1.814-26.388 28.99-34.45 28.99-34.45z" style="opacity:1;fill:#000;fill-opacity:1;fill-rule:nonzero;stroke:none;stroke-width:1.25;stroke-linecap:butt;stroke-linejoin:miter;marker:none;marker-start:none;marker-mid:none;marker-end:none;stroke-miterlimit:4;stroke-dasharray:none;stroke-dashoffset:0;stroke-opacity:1;visibility:visible;display:inline;overflow:visible" transform="translate(-1.121 363.284)"/><path d="M367.06-139.105c-.027-.018 76.005.04 76.005 0 0 0-42.522-101.217-42.51-101.29 0 0-33.486 101.34-33.496 101.29m-73.718 110.95c10.46-3.936 35.4-19.91 43.365-45.661.38-.135 87.531-283.726 87.531-283.726l88.49 211.635 33.76 76.695c10.73 23.628 39.8 40.901 39.8 40.901l-132.964.065c32.65-17.817 11.873-55.626 11.873-55.626.782 3.06-19.812-47.082-19.802-47.092.073.087-79.56-.01-79.56-.01s-11.792 38.32-17.08 60.723c-5.86 31.479 20.753 42.121 20.753 42.121.15.127-76.166-.026-76.166-.026" style="opacity:1;fill:#000;fill-opacity:1;fill-rule:nonzero;stroke:none;stroke-width:1.25;stroke-linecap:butt;stroke-linejoin:miter;marker:none;marker-start:none;marker-mid:none;marker-end:none;stroke-miterlimit:4;stroke-dasharray:none;stroke-dashoffset:0;stroke-opacity:1;visibility:visible;display:inline;overflow:visible" transform="translate(-1.121 363.284)"/><path d="M689.611-199.169h28.501c37.92-4.431 38.36-56.747 37.712-63.103 0 0-3.851-57.738-38.131-59.222-.21 0-27.995-.028-27.995 0zm.087 160.508h27.995c47.625-5.143 48.633-69.5 48.633-69.5 2.224-49.58-21.513-81.085-48.716-84.152.273-.028-27.893 0-27.893 0zm-97.604 10.343c29.513-22.1 27.92-46.704 27.92-46.704l-.045-215.9c-1.788-26.442-29.742-41.026-29.742-41.026l137.697-.09c82.85.939 84.897 69.181 84.897 69.181-.315 58.016-56.795 66.392-56.795 66.392 38.522 7.29 56.542 32.026 56.542 32.026 24.804 30.482 20.542 59.842 20.542 59.842-7.646 80.26-90.74 76.26-90.74 76.26z" style="opacity:1;fill:#000;fill-opacity:1;fill-rule:nonzero;stroke:none;stroke-width:1.25;stroke-linecap:butt;stroke-linejoin:miter;marker:none;marker-start:none;marker-mid:none;marker-end:none;stroke-miterlimit:4;stroke-dasharray:none;stroke-dashoffset:0;stroke-opacity:1;visibility:visible;display:inline;overflow:visible" transform="translate(-1.121 363.284)"/></svg>