<svg xmlns="http://www.w3.org/2000/svg" width="128" height="39" fill="none" viewBox="0 0 128 39"><path fill="#c0a577" d="M123.214 30.928q2.323 0 3.9 1.079l-.718.803a5 5 0 0 0-1.605-.664 6.5 6.5 0 0 0-1.66-.195c-.747 0-1.328.084-1.715.278-.387.166-.581.414-.581.718 0 .332.222.553.637.692.193.083.414.11.663.166.249.055.498.055.803.083.276.028.608.028.94.056.332.027.692.054 1.052.11q1.368.166 1.991.664c.443.332.637.803.637 1.384-.001.774-.333 1.354-.996 1.77-.664.414-1.633.636-2.933.636-.913 0-1.743-.111-2.435-.305a5.1 5.1 0 0 1-1.853-.912l.664-.858c.581.36 1.162.61 1.77.775.581.166 1.218.25 1.882.25.858 0 1.522-.112 1.964-.333.443-.221.664-.526.664-.94 0-.25-.083-.471-.222-.61q-.207-.207-.664-.332a5 5 0 0 0-1.05-.166q-.623-.04-1.411-.083a10 10 0 0 1-1.466-.166c-.415-.083-.775-.165-1.052-.303a1.57 1.57 0 0 1-.636-.554c-.138-.221-.222-.498-.222-.858.001-.663.305-1.217.941-1.604s1.521-.581 2.711-.581m-73.862-.082q.913 0 1.743.249a4.2 4.2 0 0 1 1.41.719c1.024.746 1.522 1.687 1.522 2.85 0 1.189-.498 2.13-1.467 2.876-.387.304-.857.526-1.41.692a6.1 6.1 0 0 1-1.77.249 6 6 0 0 1-1.77-.25 4.2 4.2 0 0 1-1.412-.718c-.968-.72-1.466-1.688-1.466-2.85s.498-2.102 1.466-2.85a4.9 4.9 0 0 1 1.411-.718 5.9 5.9 0 0 1 1.743-.25m64.956-.029c.885 0 1.687.167 2.379.471.691.305 1.3.774 1.77 1.41l-1.079.388a3.5 3.5 0 0 0-1.328-.885c-.498-.193-1.079-.277-1.742-.277-.498 0-.969.056-1.384.194a3.4 3.4 0 0 0-1.079.58 2.56 2.56 0 0 0-.692.859 2.4 2.4 0 0 0-.249 1.078c0 .415.083.775.249 1.106s.387.61.692.859.664.414 1.079.553c.415.138.913.193 1.438.193.664 0 1.218-.083 1.716-.276.498-.194.913-.499 1.3-.914l1.023.581c-.525.609-1.106 1.052-1.77 1.329s-1.438.387-2.323.387a6.1 6.1 0 0 1-1.771-.249 4.8 4.8 0 0 1-1.411-.692c-.968-.72-1.438-1.688-1.438-2.877 0-1.162.497-2.102 1.465-2.849a4.3 4.3 0 0 1 1.411-.72 6 6 0 0 1 1.744-.248m-93.283 1.329h-3.43v6.141h-1.19v-6.141h-3.458v-1.08h8.078zm55.328 0h-6.086v1.853h4.232v1.08h-4.232v3.208h-1.19v-7.22h7.276zM1.189 38.259H0v-7.22h1.19zm9.323-1.3v-5.92h1.19v7.22h-1.495l-5.505-5.92v5.92h-1.19v-7.22h1.494zm19.06-4.842h-6.086v1.854h4.233v1.079h-4.233v2.13h6.363v1.079h-7.552v-7.22h7.275zm7.744-1.078c.775 0 1.357.194 1.8.609.442.415.635.968.635 1.66 0 .331-.055.608-.138.857-.083.25-.221.47-.387.636s-.36.304-.609.415a2.1 2.1 0 0 1-.747.222l1.937 2.82h-1.383l-1.965-2.737h-3.651v2.738h-1.19v-7.22zm5.563 7.22h-1.19v-7.22h1.19zm18.865-7.22c.775 0 1.355.194 1.798.609.415.415.637.968.637 1.66 0 .331-.056.608-.139.857a1.64 1.64 0 0 1-.388.636c-.166.166-.36.304-.608.415a2.1 2.1 0 0 1-.747.222l1.936 2.82h-1.382l-1.964-2.737h-3.653v2.738h-1.19v-7.22zm22.879 7.22h-1.327l-.83-1.605h-4.842l-.83 1.605h-1.3l3.817-7.22h1.495zm7.081-7.22c.36 0 .692.055.996.138s.526.222.747.388c.194.165.36.387.47.635.11.25.166.526.166.803 0 .332-.083.636-.222.885-.138.249-.414.498-.746.664q1.245.416 1.244 1.826c0 .636-.22 1.107-.691 1.411-.443.332-1.134.47-2.047.47h-5.754v-7.22zm10.402 0c.775 0 1.356.194 1.798.609.443.415.636.968.636 1.66 0 .331-.055.608-.138.857-.083.25-.221.47-.387.636s-.36.304-.609.415c-.221.11-.47.194-.747.222l1.937 2.82h-1.383l-1.965-2.737h-3.651v2.738h-1.19v-7.22zm5.534 7.22h-1.19v-7.22h1.19zm-58.233-6.307c-.497 0-.968.055-1.383.194a3.4 3.4 0 0 0-1.079.58 2.6 2.6 0 0 0-.691.858 2.4 2.4 0 0 0-.25 1.08c0 .414.084.774.25 1.106s.387.608.691.857c.305.25.664.415 1.08.554.414.138.884.193 1.41.193s.996-.055 1.41-.193a3.4 3.4 0 0 0 1.052-.554c.304-.249.525-.525.663-.857.139-.332.222-.72.222-1.107 0-.83-.36-1.521-1.079-2.047a3.2 3.2 0 0 0-1.023-.498 4.7 4.7 0 0 0-1.273-.166M87.03 37.18h4.565c.553.027.94-.055 1.16-.22.25-.167.361-.416.361-.748 0-.36-.11-.637-.332-.803q-.331-.248-.996-.248H87.03zm-8.824-1.605h3.68l-1.826-3.485zm-45.37-1.106h4.316c.443-.028.775-.11 1.024-.304s.36-.47.36-.83c0-.802-.5-1.19-1.495-1.19h-4.205zm24.4 0h4.315c.442-.028.803-.11 1.024-.304.25-.193.36-.47.36-.83 0-.802-.499-1.19-1.494-1.19h-4.206zm40.362 0h4.315c.442-.028.802-.11 1.024-.304.249-.194.36-.47.36-.83 0-.802-.498-1.19-1.494-1.19h-4.205zm-10.54-.332h4.674c.332-.056.61-.139.83-.332.222-.194.333-.415.333-.692a.86.86 0 0 0-.305-.691q-.29-.249-.83-.249h-4.702zM5.368 16.958l6.584-4.73 11.065 11.729h5.837L15.438 9.655 27.886.775h-6.722L5.368 12.117V.775H.83v23.182h4.537zM57.072 3.126C54.194 1.051 50.764 0 46.725 0s-7.497 1.051-10.374 3.126c-3.264 2.352-4.896 5.422-4.896 9.185 0 3.817 1.632 6.916 4.869 9.267 2.794 2.047 6.252 3.043 10.401 3.043 4.15 0 7.608-1.024 10.374-3.043 3.237-2.38 4.869-5.477 4.869-9.267 0-3.735-1.632-6.806-4.897-9.185m-2.712 15.16c-1.936 1.521-4.481 2.296-7.662 2.296-3.21 0-5.754-.774-7.719-2.296-1.936-1.521-2.904-3.513-2.904-6.003 0-2.38.996-4.343 2.96-5.892 1.992-1.577 4.537-2.352 7.663-2.352 3.098 0 5.643.775 7.607 2.324s2.932 3.513 2.932 5.92c0 2.49-.94 4.482-2.877 6.003M95.495 7.22c0-1.936-.691-3.485-2.102-4.675-1.41-1.19-3.347-1.77-5.81-1.77H68.497v23.182h18.866c6.059 0 9.074-2.102 9.074-6.252 0-2.573-1.245-4.481-3.68-5.726 1.826-1.218 2.74-2.794 2.74-4.759m-22.49-2.379h14.772c2.186 0 3.292.886 3.292 2.628 0 .83-.304 1.494-.94 1.992-.609.498-1.439.747-2.518.747H72.977V4.841zm17.677 14.33c-.802.47-1.909.72-3.347.72h-14.33v-5.616h14.717c2.766 0 4.15.968 4.15 2.932 0 .83-.388 1.466-1.19 1.964M107.557 19.89v-5.947h13.61V9.876h-13.61V4.841h19.558V.775H103.02v23.182H128V19.89z"/></svg>