<svg xmlns="http://www.w3.org/2000/svg" id="Ebene_1" width="340.16" height="86.74" viewBox="0 0 340.16 86.74"><defs><style>.st0{fill:#1d1d1b}</style></defs><path d="M180.27 78.4V17.79l-.24-.05-28.28 60.66h-1.99l-28.29-60.66-.24.05V78.4h-2.77V8.34h8.91l26.96 58.11 27.03-58.11h10V78.4z" class="st0"/><path d="M191.23 8.47v69.81h-10.84V17.79l-.48-.11-28.25 60.59h-1.83l-28.25-60.59-.48.11v60.48h-2.52V8.47h8.7l26.81 57.79.23.49.23-.49 26.89-57.79zm.25-.25h-10.2l-26.95 57.94-26.88-57.94h-9.11v70.31h3.02V17.79l28.32 60.73h2.15l28.32-60.73v60.73h11.34V8.22ZM256.89 78.4V45.18h-34.61V78.4H211.2V8.34h11.08v34.19h34.61V8.34h11.09V78.4z" class="st0"/><path d="M267.85 8.47v69.81h-10.84V45.06h-34.86v33.22h-10.84V8.47h10.84v34.19h34.86V8.47zm.25-.25h-11.34v34.19H222.4V8.22h-11.34v70.31h11.34V45.31h34.36v33.22h11.34zM282.93 78.4v-3.68l43.78-63.79h-43.78V8.34h56.85v2.55l-44.35 64.63h44.35v2.88z" class="st0"/><path d="M339.66 8.47v2.34l-44.2 64.44-.27.39h44.47v2.63h-56.6V74.8l43.62-63.61.27-.39h-43.89V8.46h56.6m.25-.24h-57.1v2.84h43.66l-43.66 63.67v3.8h57.1V75.4h-44.24l44.24-64.5V8.23ZM43.37 86.54A272 272 0 0 0 .2 43.37 273 273 0 0 0 43.37.2a273 273 0 0 0 43.17 43.17 273 273 0 0 0-43.17 43.17" class="st0"/><path d="M43.37.4a273 273 0 0 0 42.97 42.97 273 273 0 0 0-42.97 42.97A272.4 272.4 0 0 0 .4 43.37 273 273 0 0 0 43.37.4m0-.4A272 272 0 0 1 0 43.37a272.4 272.4 0 0 1 43.37 43.37 272 272 0 0 1 43.37-43.37A272 272 0 0 1 43.37 0" class="st0"/></svg>