<svg xmlns="http://www.w3.org/2000/svg" width="754.667" height="144" viewBox="0 0 566 108"><path d="M119 53v36h16.8l.4-14.3c.3-10.8.8-15 2.1-17.4 3.1-5.9 11.9-6.5 14.8-1.1.8 1.4 1.4 8 1.7 17.5l.4 15.3h17l-.4-19.8c-.3-19.3-.4-20-2.8-23.5-3.3-4.9-9.2-7.7-16-7.7-5.7 0-13.7 3.1-14.7 5.6-1.5 4.1-2.3-.1-2.3-12.6V17h-17zM301 53v36h16v-8.3l2.2 2.8c4.5 5.8 16.3 8.3 23.9 5.1 8-3.4 13.9-13.4 14.1-23.8.2-16.3-8.3-26.8-21.7-26.8-5.7 0-11.6 1.9-14.7 4.7-1.7 1.5-1.8 1-1.8-12V17h-18zm35.3 2c5.4 6 2.6 18.9-4.7 21.3-3.9 1.3-9-1.2-11.2-5.4-2.1-4.2-1.5-13 1.2-16 4.3-4.8 10.3-4.7 14.7.1M470 53v36h18V75.5c0-17.6 1.4-21.4 8.6-22.9 2.5-.6 3.8-.2 6 1.8l2.9 2.4.3 16.1.3 16.1H524V72.2c0-18.9-1.2-25.1-5.7-29.4-7.1-6.8-20.3-6.6-28 .5l-2.3 2V17h-18zM189 26v7h14V19h-14zM210 26v7h15V19h-15zM36.6 39.5C28.7 42.3 24.3 49.8 26 57.6c1.4 6 3.3 7.4 16.4 11.9 6.6 2.2 8.7 4.4 6.7 6.9-1.7 2-11 2.1-17.3.2l-4.6-1.3-.6 3c-1.1 5.6-.7 9.4 1.2 10.2.9.4 6.5 1 12.3 1.3 8.3.3 11.7.1 15.7-1.2 9.1-3 13.6-10.9 11.2-19.5-1.4-5.3-5.5-8.5-13.7-10.6-3.7-1-7.8-2.4-9-3.2-2.7-1.6-3-3.8-.7-4.7 2.9-1.1 12.4-.6 15.9.8 1.9.8 3.6 1.2 3.9.8.2-.4.6-3.2.7-6.2.4-5.5.4-5.5-3.1-6.7-4.8-1.6-19.6-1.5-24.4.2M87.9 39.4C76.4 43.5 70 52.3 70 63.9 70 79.5 81.8 90 99.3 90c4 0 8.8-.5 10.9-1l3.6-1-.5-6.3c-.3-3.4-.7-6.3-.8-6.5-.1-.1-1.4.2-2.9.8-1.5.5-4.9 1-7.5 1-12.7 0-18.5-13.8-9.6-22.7 2.9-2.9 4-3.3 8.3-3.3 2.8 0 6.3.5 7.8 1 1.5.6 2.8.9 3 .8.1-.2.6-3.1.9-6.5l.7-6.1-3.8-1.1c-5.3-1.5-17.1-1.3-21.5.3M193.3 40.1c-9 3.5-16.3 14.1-16.3 23.9 0 10.5 8.1 21.5 18.1 24.4 17.5 5.2 35.1-2.1 39.3-16.3 2-6.8 2-9.4 0-16-2.1-7.2-8-13.4-15-16.1-7.3-2.7-18.9-2.7-26.1.1m20.3 13.3c3.2 3.2 3.4 3.8 3.4 10.5 0 6.4-.3 7.4-2.9 10.3-2.5 2.8-3.6 3.3-7.6 3.3s-5.1-.5-7.6-3.3c-2.6-2.9-2.9-3.9-2.9-10.3 0-6.7.2-7.3 3.4-10.5 4.7-4.7 9.5-4.7 14.2 0M265.4 39.8c-2.2 1.1-5 3.2-6.2 4.7l-2.2 2.8V39h-16v50h17.9l.3-15.5c.3-15.2.4-15.5 2.9-18.1 3.5-3.4 9-3.7 12.2-.6 2.1 2.1 2.2 3.3 2.5 18.2l.4 16h18l-.4-18.8c-.3-17-.6-19.1-2.5-22.9-3.5-6.4-7.5-8.7-15.8-9.1-5.2-.2-8 .2-11.1 1.6M438.4 39.6c-10.3 3.6-16.7 13.1-16.7 24.4 0 15.9 11.3 26 29.2 26 3.6 0 8.3-.5 10.4-1.1l3.7-1v-6.6c0-5.8-.2-6.4-1.7-5.8-3.5 1.5-12.3 1.7-15.3.5-5-2.1-8-6.5-8-11.6 0-9.2 5.2-13.9 14.4-13.1 2.8.2 6.1.8 7.3 1.2 2 .6 2.1.3 2.5-5.6.3-6.2.3-6.2-2.9-7.6-4.2-1.7-17.6-1.6-22.9.3M363.2 58.8c.3 19.3.4 20 2.8 23.5 6.5 9.7 24.6 10.3 31.8 1.2l2.2-2.8V89h16V39h-17v11.2c-.1 19.6-2.4 24.8-10.7 24.8-6.9 0-7.7-2.2-8.2-20.7l-.3-15.3h-16.9zM531 79v10h21V69h-21z"/></svg>