<svg xmlns="http://www.w3.org/2000/svg" viewBox="0 0 648 144"><style>.a{fill:#033c57}</style><path d="M131.51 54.727c6.6-.3 5.9-7 5.9-7h-35.5v-46.2l-23 20.6c-3.4-1.1-10.7-3.1-18.2-3.2-6.6 0-13 1.9-16.8 3-.3.1-.7.2-1 .3l-23.2-20.6v46.6c0 7 6.9 6.3 6.9 6.3v-37.6l12.9 11.4s1.5 1.3 4.4.7c.6-.2 1.2-.3 2.1-.6 3.4-1 9.3-2.7 14.9-2.7 7.8 0 15.6 2.7 17.3 3.3 2.5.6 4.2-.7 4.2-.7l12.8-11.4v37.8zm-11.2 49.2-25.1-25c-2.8-2.6-4.8-2.7-7-2.2l-19.4 5.7c-5.5 1.7-11.4 1.7-17 0l-8.5-2.6-10.7-3.2c-6.5-1.7-7.8 4.8-7.8 4.8s18.9 5.8 20.6 6.4c1.7.5 6.3 1.7 6.3 1.7 6.2 1.5 12.7 1.4 19-.4l19.3-5.8 13.7 13.7h-40c-8.2 0-14.9 6.6-14.9 14.9v21c.3 6.6 5.8 12 12.6 12 7 0 12.6-5.6 12.6-12.6v-11h63.8v-.7c0-5.1-3.5-6.1-5.4-6.2h-61.8c-1.9 0-3.4 1.5-3.4 3.4v14.5c0 3.1-2.6 5.7-5.7 5.7s-5.7-2.6-5.7-5.7v-20.4c0-4.4 3.6-8 8-8z" class="a"/><path d="M49.31 51.227v-4.9c0-2.7-2.2-4.9-4.9-4.9s-4.9 2.2-4.9 4.9 2.2 4.9 4.9 4.9zM71.51 51.227v-4.9c0-2.7 2.2-4.9 4.9-4.9s4.9 2.2 4.9 4.9-2.2 4.9-4.9 4.9zM7.81 62.327h34v6.7H1.91s-.6-6.4 5.9-6.7M113.01 62.327h-34v6.7h39.9s.6-6.4-5.9-6.7M69.81 62.327l-9.2 9.3-9.3-9.3zM379.91 108.227c0-5 .1-9.9 0-14.9-.1-2.5-.2-5-.7-7.4-1.2-5-4-8.7-9-10.5s-10-1.8-15 .1c-3 1-5.3 3-7 5.6-.3.6-.6 1-1.2 2-.6-3-1-5.4-1.5-8.1h-15.6v10.1h6.1v25.7h-6.2v10.2h24.5v-10.2h-5.6c0-6.6-.4-13 .2-19.3.3-4 2.4-6.2 6.2-6.8 1.8-.2 3.8-.3 5.7-.1 3.4.5 5.5 2.5 6.2 5.8.3 1.5.5 3.1.5 4.6.1 7.8 0 15.7 0 23.5 0 .8.1 1.6.1 2.3h18.6v-10.1h-6.3zM289.61 93.427c.2-5.8 5.7-10.3 11.8-9.6 5.4.6 8 3.6 8.6 9.6zm17.5-18.2c-5.5-1.4-11-1.3-16.3.6-6.4 2.3-11 6.6-12.8 13.4-1.6 5.8-1.7 11.8 0 17.6 2.2 7.5 7.3 12 14.7 14 8.5 2.2 16.7 1 24.7-2.2 2.1-.9 3.8-2.1 3.8-2.1l-4.5-9.3s-2 1.4-3.8 2.2c-4.2 2.2-8.6 2.6-13.2 2-5.4-.8-9.6-4.4-10.2-10.6h31.4c.2-.6.2-.8.2-1.1 1.2-5.6.4-10.9-2.5-15.8-2.7-4.2-6.4-7.3-11.5-8.7M265.01 54.527c0-4.7-2.2-7-6.9-7h-11.8v9.9h6.1v53.6h-6.1v10.2h24.2v-10.1h-5.5zM225.01 67.227c5 .1 8.9-3.8 8.9-8.6 0-5-3.8-8.8-8.7-8.8-5 0-8.8 3.8-8.8 8.8 0 4.8 3.8 8.6 8.6 8.6M232.21 82.127c0-4.7-2.2-7-6.9-7h-11.8v9.9h6.1v26h-6.1v10.2h24.2v-10.1h-5.5zM406.71 90.627v-6h14.8v-9.5h-14.9v-10.7c0-4.7-2.2-7-6.9-7h-5.8v17.7h-6.3v9.6h6.3v2.7c0 5-.1 10.1.1 15.1.1 2.8.3 5.6 1 8.3 1.3 5.4 4.7 9 10.2 10.3 3.9 1 7.8.9 11.8.2 1.8-.3 3.5-.7 5.1-1.3v-10.5c-3.2 1.1-6.2 1.4-9.4 1.1-2.9-.2-4.8-1.7-5.7-4.4-.2-.7-.4-1.4-.4-2.2.2-4.2.2-8.8.1-13.4M188.81 74.627c-.1-.9-.1-1.7-.2-2.4-.4-3.8-2.3-6.6-6.2-7.8-4.5-1.4-9.1-1.3-13.5.5-3.7 1.4-5.3 4.1-4.9 7.7.2 2.3 1.6 3.9 3.5 5.2 2.2 1.5 4.8 2.3 7.4 3q8.85 2.1 17.4 5.4c9.3 3.5 13.4 12.2 10.9 21.5-1.8 6.5-6.4 10.7-13.1 12.6-8.8 2.5-17.7 2.4-26.6-.1-4.5-1.3-8-3.8-10.6-7.7-1.6-2.4-2.3-5-2.5-7.8-.1-1.3 0-3.2 0-4.7h14.1v2c.2 3.6 2 6.2 5.4 7.5 5.4 2.1 11 1.9 16.2-.3 5-2.1 5.2-8.3.7-11.4-2.6-1.7-5.4-2.6-8.3-3.4-5.8-1.4-11.5-3.2-17-5.5-6.8-2.9-10.7-7.8-11.4-14.8s2-12.7 8-17c3.6-2.6 7.7-3.8 12.1-4.3 5.4-.7 10.8-.6 16.1.6 5.8 1.2 10.6 3.8 13.6 8.8 1.7 2.7 2 5.8 2.2 8.8.1 1.1.1 2.3.1 3.7zM510.71 54.627c0-4.7-2.2-7-6.9-7h-11.8v9.9h6.1v53.6h-6.2v10.2h24.2v-10.1h-5.5c.1-.2.1-56.6.1-56.6M459.61 87.627v9.8h13.4c-.1 2.1-.2 3-.4 4.3-.8 4.6-3.6 7.4-8 8.6-2.9.8-5.8.8-8.6.3-4.1-.6-7.5-2.5-10-5.9-1.8-2.6-2.9-5.5-3.4-8.6-.9-4.8-.9-9.7-.5-14.6.2-2.9.9-5.8 2-8.4 1.3-3.1 3.2-5.7 6.2-7.4 3-1.8 6.4-2.2 9.8-2.2 2.8.1 5.4.8 7.8 2.5 3.4 2.6 5 6.2 5.3 10.4.1.7.2 1.4.2 2.1h12.2c-.1-2.7 0-5.2-.5-7.6-1.7-9-7.1-14.6-15.7-17-5.2-1.4-10.5-1.8-15.8-1-10.6 1.4-18.4 6.9-22 17.3-3.8 11.1-3.8 22.6-.2 33.8 3 9.1 9.2 14.7 18.3 17 6 1.5 12.1 1.4 18.1 0 10-2.3 15.6-8.9 17.4-19 .2-1.4.2-3.6.2-5v-9.4zM595.61 102.227c-1.3-2.4-3.4-3.8-5.8-4.9-3.9-1.8-8.1-2.7-12.4-3.3-2.4-.3-4.6-.9-6.9-2-2.7-1.4-2.8-5.9 0-7.4 3.4-1.8 7-1.9 10.6-.6 1.8.7 2.7 2.1 3 4 .1.8.2 1.6.2 2.5h11.4c.3-2.3.1-4.6-.6-6.8-1.2-4-4.1-6.6-7.9-7.9-5.1-1.9-10.5-2-15.9-1.4-3.3.4-6.5 1.2-9.3 3.1-4.2 2.8-6.2 6.6-5.9 11.8.2 5 3 8.2 7.2 10.5 1 .5 2 .9 3 1.1 3 .7 6.1 1.4 9.2 2.1 2.2.5 4.4 1 6.5 1.7 3.1 1.1 3.5 4.6 1 6.6-.5.4-1.1.8-1.8 1-3.4 1-6.7 1-10 0-2.2-.7-3.8-2.2-4.1-4.8 0-.4-.1-.7-.1-1.2h-11.6c-.2 3.5.2 6.7 2.3 9.4 2.6 3.4 6.2 4.8 10.2 5.5 4.3.9 8.7.8 13.1.5 3.5-.2 7-1 10.2-2.9 6.4-3.7 6.9-11.8 4.4-16.6M644.11 102.227c-1.3-2.4-3.4-3.8-5.8-4.9-3.9-1.8-8.1-2.7-12.4-3.3-2.4-.3-4.6-.9-6.9-2-2.7-1.4-2.8-5.9 0-7.4 3.4-1.8 7-1.9 10.6-.6 1.8.7 2.7 2.1 3 4 .1.8.2 1.6.2 2.5h11.4c.3-2.3.1-4.6-.6-6.8-1.2-4-4.1-6.6-7.9-7.9-5.1-1.9-10.5-2-15.9-1.4-3.3.4-6.5 1.2-9.3 3.1-4.2 2.8-6.2 6.6-5.9 11.8.2 5 3 8.2 7.2 10.5 1 .5 2 .9 3 1.1 3 .7 6.1 1.4 9.2 2.1 2.2.5 4.4 1 6.5 1.7 3.1 1.1 3.5 4.6 1 6.6-.5.4-1.1.8-1.8 1-3.4 1-6.7 1-10 0-2.2-.7-3.8-2.2-4.1-4.8 0-.4-.1-.7-.1-1.2h-11.6c-.2 3.5.2 6.7 2.3 9.4 2.6 3.4 6.2 4.8 10.2 5.5 4.3.9 8.7.8 13.1.5 3.5-.2 7-1 10.2-2.9 6.4-3.7 6.9-11.8 4.4-16.6M536.61 67.227c5 .1 8.9-3.8 8.9-8.6 0-5-3.8-8.8-8.7-8.8s-8.9 3.8-8.9 8.8c.1 4.8 3.9 8.6 8.7 8.6M543.81 82.127c0-4.7-2.2-7-6.9-7h-11.8v9.9h6.1v26h-6.1v10.2h24.2v-10.1h-5.5z" class="a"/></svg>